<svg xmlns="http://www.w3.org/2000/svg" width="162.38217163085938" height="179.63784790039062" viewBox="9.843994140625 14.15493392944336 162.38217163085938 179.63784790039062"><title>Neo4j Graph Visualization</title><desc>Created using Neo4j (http://www.neo4j.com/)</desc><g class="layer relationships"><g class="relationship" transform="translate(38.84399454399179 63.161528650978) rotate(432.989517837476)"><path class="outline" fill="#A5ABB6" stroke="none" d="M 25 0.5 L 32.417800144946526 0.5 L 32.417800144946526 -0.5 L 25 -0.5 Z M 66.86311264494653 0.5 L 74.28091278989305 0.5 L 74.28091278989305 3.5 L 81.28091278989305 0 L 74.28091278989305 -3.5 L 74.28091278989305 -0.5 L 66.86311264494653 -0.5 Z"/><text text-anchor="middle" pointer-events="none" font-size="8px" fill="#000000" x="49.640456394946526" y="3" font-family="sans-serif">ORIGIN</text></g><g class="relationship" transform="translate(38.84399454399179 63.161528650978) rotate(349.1498890499156)"><path class="outline" fill="#A5ABB6" stroke="none" d="M 25 0.5 L 25.305152744055476 0.5 L 25.305152744055476 -0.5 L 25 -0.5 Z M 73.97702774405548 0.5 L 74.28218048811095 0.5 L 74.28218048811095 3.5 L 81.28218048811095 0 L 74.28218048811095 -3.5 L 74.28218048811095 -0.5 L 73.97702774405548 -0.5 Z"/><text text-anchor="middle" pointer-events="none" font-size="8px" fill="#000000" x="49.641090244055476" y="3" font-family="sans-serif">DESTINA…</text></g></g><g class="layer nodes"><g class="node" transform="translate(69.93611997635817,164.79278447098076)"><circle class="outline" cx="0" cy="0" r="25" fill="#F79767" stroke="#f36924" stroke-width="2px"/><text text-anchor="middle" pointer-events="none" font-family="sans-serif" dy="1.5625" font-size="25" fill="#FFFFFF"/><text text-anchor="middle" pointer-events="none" x="0" y="5" font-size="10px" fill="#FFFFFF" font-family="sans-serif"> LAX</text></g><g class="node" transform="translate(143.226167552225,43.1549335536942)"><circle class="outline" cx="0" cy="0" r="25" fill="#F79767" stroke="#f36924" stroke-width="2px"/><text text-anchor="middle" pointer-events="none" font-family="sans-serif" dy="1.5625" font-size="25" fill="#FFFFFF"/><text text-anchor="middle" pointer-events="none" x="0" y="5" font-size="10px" fill="#FFFFFF" font-family="sans-serif"> ABQ</text></g><g class="node" transform="translate(38.84399454399179,63.161528650978)"><circle class="outline" cx="0" cy="0" r="25" fill="#57C7E3" stroke="#23b3d7" stroke-width="2px"/><text text-anchor="middle" pointer-events="none" font-family="sans-serif" dy="1.5625" font-size="25" fill="#2A2C34"/><text text-anchor="middle" pointer-events="none" x="0" y="5" font-size="10px" fill="#2A2C34" font-family="sans-serif"> 11/2/2015</text></g></g></svg>