<svg xmlns="http://www.w3.org/2000/svg" width="379.7277526855469" height="370.4963073730469" viewBox="-92.04224395751953 -81.83493041992188 379.7277526855469 370.4963073730469"><title>Neo4j Graph Visualization</title><desc>Created using Neo4j (http://www.neo4j.com/)</desc><g class="layer relationships"><g class="relationship" transform="translate(150.68830182577318 259.6613789366134) rotate(306.36166868868537)"><path class="outline" fill="#A5ABB6" stroke="none" d="M 24.018736134675446,6.953439040707552 L 24.277555179777966,5.987513214418485 A 100.10683232192778 100.10683232192778 0 0 0 25.48191633640509,6.302208473451429 L 25.23512805012984,7.271277893956139 A 101.10683232192778 101.10683232192778 0 0 1 24.018736134675446,6.953439040707552 Z M 71.9272002491206,8.033624305578385 L 71.71217926764706,7.057014876212605 A 100.10683232192778 100.10683232192778 0 0 0 72.92617187879051,6.78180433546408 L 72.24472802260831,3.8602235525878754 L 79.85676768153202,5.678698801518319 L 73.83476368703344,10.67724537929902 L 73.15331983085125,7.7556645964228155 A 101.10683232192778 101.10683232192778 0 0 1 71.9272002491206,8.033624305578385"/><text text-anchor="middle" pointer-events="none" font-size="8px" fill="#000000" x="48.54471041131359" y="12.88516388652775" font-family="sans-serif">DIRECTED</text></g><g class="relationship" transform="translate(150.68830182577318 259.6613789366134) rotate(306.36166868868537)"><path class="outline" fill="#A5ABB6" stroke="none" d="M 24.018736134675446,-6.953439040707552 L 24.277555179777966,-5.987513214418485 A 100.10683232192778 100.10683232192778 0 0 1 30.87678053013974,-7.518461205172528 L 30.683883312721665,-8.499680173350555 A 101.10683232192778 101.10683232192778 0 0 0 24.018736134675446,-6.953439040707552 Z M 66.4412473912507,-9.083494446535155 L 66.2804853825081,-8.096501246687737 A 100.10683232192778 100.10683232192778 0 0 1 72.92617187879051,-6.78180433546408 L 72.24472802260831,-3.8602235525878754 L 79.85676768153202,-5.678698801518319 L 73.83476368703344,-10.67724537929902 L 73.15331983085125,-7.7556645964228155 A 101.10683232192778 101.10683232192778 0 0 0 66.4412473912507,-9.083494446535155"/><text text-anchor="middle" pointer-events="none" font-size="8px" fill="#000000" x="48.54471041131358" y="-6.885163886527749" font-family="sans-serif">WROTE</text></g><g class="relationship" transform="translate(258.68550403973444 82.26031190248365) rotate(476.3063586599323)"><path class="outline" fill="#A5ABB6" stroke="none" d="M 24.018736134675446,6.953439040707552 L 24.277555179777966,5.987513214418485 A 100.27540168558826 100.27540168558826 0 0 0 25.523027846276737,6.312683225106738 L 25.276629321516822,7.281851820860922 A 101.27540168558826 101.27540168558826 0 0 1 24.018736134675446,6.953439040707552 Z M 71.96974251802773,8.043637408894966 L 71.75509016153347,7.066946891969849 A 100.27540168558826 100.27540168558826 0 0 0 73.01050728766535,6.782578225866825 L 72.32899114272551,3.8610143049186028 L 79.9410757940345,5.679301207831923 L 73.91919548091845,10.677996787131121 L 73.23767933597861,7.7564328661829 A 101.27540168558826 101.27540168558826 0 0 1 71.96974251802773,8.043637408894966"/><text text-anchor="middle" pointer-events="none" font-size="8px" fill="#000000" x="48.58683407186672" y="12.890905630022857" transform="rotate(180 48.58683407186672 9.890905630022857)" font-family="sans-serif">DIRECTED</text></g><g class="relationship" transform="translate(258.68550403973444 82.26031190248365) rotate(476.3063586599323)"><path class="outline" fill="#A5ABB6" stroke="none" d="M 24.018736134675446,-6.953439040707552 L 24.277555179777966,-5.987513214418485 A 100.27540168558826 100.27540168558826 0 0 1 30.918372019837886,-7.527026122335769 L 30.725778756217466,-8.508304795704376 A 101.27540168558826 101.27540168558826 0 0 0 24.018736134675446,-6.953439040707552 Z M 66.48348526438265,-9.09168216367793 L 66.32300457408111,-8.104643183677467 A 100.27540168558826 100.27540168558826 0 0 1 73.01050728766535,-6.782578225866825 L 72.32899114272551,-3.8610143049186028 L 79.9410757940345,-5.679301207831923 L 73.91919548091845,-10.677996787131121 L 73.23767933597861,-7.7564328661829 A 101.27540168558826 101.27540168558826 0 0 0 66.48348526438265,-9.09168216367793"/><text text-anchor="middle" pointer-events="none" font-size="8px" fill="#000000" x="48.58683407186669" y="-6.890905630022857" transform="rotate(180 48.58683407186669 -9.890905630022857)" font-family="sans-serif">WROTE</text></g><g class="relationship" transform="translate(144.2481350331625 -52.83493496821136) rotate(535.8246305381574)"><path class="outline" fill="#A5ABB6" stroke="none" d="M 21.40063509461097,12.933012701892217 L 21.90063509461097,12.06698729810778 A 56.684767083626255 56.684767083626255 0 0 0 23.843499963559147,13.138558823498869 L 23.377774866128334,14.023488274711255 A 57.684767083626255 57.684767083626255 0 0 1 21.40063509461097,12.933012701892217 Z M 73.8200844606945,15.6230423995407 L 73.41136189811415,14.710383719179987 A 56.684767083626255 56.684767083626255 0 0 0 75.41821536511246,13.76405999284799 L 74.08583641973118,11.07616744553426 L 81.91202779974137,11.103157878177303 L 77.19472062562082,17.347916722599628 L 75.86234168023954,14.660024175285898 A 57.684767083626255 57.684767083626255 0 0 1 73.8200844606945,15.6230423995407"/><text text-anchor="middle" pointer-events="none" font-size="8px" fill="#000000" x="48.430568411456306" y="23.132576390138368" transform="rotate(180 48.430568411456306 20.132576390138368)" font-family="sans-serif">PRODUCED</text></g><g class="relationship" transform="translate(144.2481350331625 -52.83493496821136) rotate(535.8246305381574)"><path class="outline" fill="#A5ABB6" stroke="none" d="M 25 0.5 L 25.210253680344564 0.5 L 25.210253680344564 -0.5 L 25 -0.5 Z M 72.10087868034456 0.5 L 72.31113236068913 0.5 L 72.31113236068913 3.5 L 79.31113236068913 0 L 72.31113236068913 -3.5 L 72.31113236068913 -0.5 L 72.10087868034456 -0.5 Z"/><text text-anchor="middle" pointer-events="none" font-size="8px" fill="#000000" x="48.655566180344564" y="3" transform="rotate(180 48.655566180344564 0)" font-family="sans-serif">DIRECTED</text></g><g class="relationship" transform="translate(144.2481350331625 -52.83493496821136) rotate(535.8246305381574)"><path class="outline" fill="#A5ABB6" stroke="none" d="M 21.40063509461097,-12.933012701892217 L 21.90063509461097,-12.06698729810778 A 56.684767083626255 56.684767083626255 0 0 1 31.09972764493417,-16.330988007764795 L 30.762012735331595,-17.272236455217495 A 57.684767083626255 57.684767083626255 0 0 0 21.40063509461097,-12.933012701892217 Z M 66.24484995818334,-18.397417262691427 L 65.96744862450782,-17.436663131773926 A 56.684767083626255 56.684767083626255 0 0 1 75.41821536511246,-13.76405999284799 L 74.08583641973118,-11.07616744553426 L 81.91202779974137,-11.103157878177303 L 77.19472062562082,-17.347916722599628 L 75.86234168023954,-14.660024175285898 A 57.684767083626255 57.684767083626255 0 0 0 66.24484995818334,-18.397417262691427"/><text text-anchor="middle" pointer-events="none" font-size="8px" fill="#000000" x="48.430568411456306" y="-17.132576390138368" transform="rotate(180 48.430568411456306 -20.132576390138368)" font-family="sans-serif">WROTE</text></g><g class="relationship" transform="translate(-63.04224532494608 97.57741805401204) rotate(433.0757815204163)"><path class="outline" fill="#A5ABB6" stroke="none" d="M 21.40063509461097,12.933012701892217 L 21.90063509461097,12.06698729810778 A 57.57235219405304 57.57235219405304 0 0 0 31.516296920827113,16.494764133263345 L 31.183315662632307,17.4376975782588 A 58.57235219405304 58.57235219405304 0 0 1 21.40063509461097,12.933012701892217 Z M 66.67939266111539,18.55463144263419 L 66.40635289285589,17.592628695783226 A 57.57235219405304 57.57235219405304 0 0 0 76.28136874703802,13.77815337960378 L 74.94767870763516,11.090911135443864 L 82.77388232331162,11.11408366169044 L 78.05962213290849,17.361143038483664 L 76.72593209350563,14.67390079432375 A 58.57235219405304 58.57235219405304 0 0 1 66.67939266111539,18.55463144263419"/><text text-anchor="middle" pointer-events="none" font-size="8px" fill="#000000" x="48.86038713236745" y="23.251491548204" font-family="sans-serif">WROTE</text></g><g class="relationship" transform="translate(-63.04224532494608 97.57741805401204) rotate(433.0757815204163)"><path class="outline" fill="#A5ABB6" stroke="none" d="M 25 0.5 L 25.638471345655454 0.5 L 25.638471345655454 -0.5 L 25 -0.5 Z M 72.52909634565546 0.5 L 73.16756769131091 0.5 L 73.16756769131091 3.5 L 80.16756769131091 0 L 73.16756769131091 -3.5 L 73.16756769131091 -0.5 L 72.52909634565546 -0.5 Z"/><text text-anchor="middle" pointer-events="none" font-size="8px" fill="#000000" x="49.083783845655454" y="3" font-family="sans-serif">DIRECTED</text></g><g class="relationship" transform="translate(-63.04224532494608 97.57741805401204) rotate(433.0757815204163)"><path class="outline" fill="#A5ABB6" stroke="none" d="M 21.40063509461097,-12.933012701892217 L 21.90063509461097,-12.06698729810778 A 57.57235219405304 57.57235219405304 0 0 1 24.23958757921194,-13.346112729433216 L 23.78021389367478,-14.234355836378612 A 58.57235219405304 58.57235219405304 0 0 0 21.40063509461097,-12.933012701892217 Z M 74.26924467350004,-15.823064026860848 L 73.8666241093859,-14.907697061457135 A 57.57235219405304 57.57235219405304 0 0 1 76.28136874703802,-13.77815337960378 L 74.94767870763516,-11.090911135443864 L 82.77388232331162,-11.11408366169044 L 78.05962213290849,-17.361143038483664 L 76.72593209350563,-14.67390079432375 A 58.57235219405304 58.57235219405304 0 0 0 74.26924467350004,-15.823064026860848"/><text text-anchor="middle" pointer-events="none" font-size="8px" fill="#000000" x="48.86038713236745" y="-17.251491548204" font-family="sans-serif">PRODUCED</text></g></g><g class="layer nodes"><g class="node" transform="translate(150.68830182577318,259.6613789366134)"><circle class="outline" cx="0" cy="0" r="25" fill="#57C7E3" stroke="#23b3d7" stroke-width="2px"/><text text-anchor="middle" pointer-events="none" font-family="sans-serif" dy="1.5625" font-size="25" fill="#2A2C34"/><text text-anchor="middle" pointer-events="none" font-family="sans-serif" dy="1.5625" font-size="25" fill="#2A2C34"/><text text-anchor="middle" pointer-events="none" x="0" y="0" font-size="10px" fill="#2A2C34" font-family="sans-serif"> Lilly</text><text text-anchor="middle" pointer-events="none" x="0" y="10" font-size="10px" fill="#2A2C34" font-family="sans-serif"> Wacho…</text></g><g class="node" transform="translate(212.46836756617776,175.74745975595545)"><circle class="outline" cx="0" cy="0" r="25" fill="#F79767" stroke="#f36924" stroke-width="2px"/><text text-anchor="middle" pointer-events="none" font-family="sans-serif" dy="1.5625" font-size="25" fill="#FFFFFF"/><text text-anchor="middle" pointer-events="none" font-family="sans-serif" dy="1.5625" font-size="25" fill="#FFFFFF"/><text text-anchor="middle" pointer-events="none" x="0" y="0" font-size="10px" fill="#FFFFFF" font-family="sans-serif"> Speed</text><text text-anchor="middle" pointer-events="none" x="0" y="10" font-size="10px" fill="#FFFFFF" font-family="sans-serif"> Racer</text></g><g class="node" transform="translate(258.68550403973444,82.26031190248365)"><circle class="outline" cx="0" cy="0" r="25" fill="#57C7E3" stroke="#23b3d7" stroke-width="2px"/><text text-anchor="middle" pointer-events="none" font-family="sans-serif" dy="1.5625" font-size="25" fill="#2A2C34"/><text text-anchor="middle" pointer-events="none" font-family="sans-serif" dy="1.5625" font-size="25" fill="#2A2C34"/><text text-anchor="middle" pointer-events="none" x="0" y="0" font-size="10px" fill="#2A2C34" font-family="sans-serif"> Lana</text><text text-anchor="middle" pointer-events="none" x="0" y="10" font-size="10px" fill="#2A2C34" font-family="sans-serif"> Wacho…</text></g><g class="node" transform="translate(144.2481350331625,-52.83493496821136)"><circle class="outline" cx="0" cy="0" r="25" fill="#57C7E3" stroke="#23b3d7" stroke-width="2px"/><text text-anchor="middle" pointer-events="none" font-family="sans-serif" dy="1.5625" font-size="25" fill="#2A2C34"/><text text-anchor="middle" pointer-events="none" font-family="sans-serif" dy="1.5625" font-size="25" fill="#2A2C34"/><text text-anchor="middle" pointer-events="none" x="0" y="0" font-size="10px" fill="#2A2C34" font-family="sans-serif"> Cameron</text><text text-anchor="middle" pointer-events="none" x="0" y="10" font-size="10px" fill="#2A2C34" font-family="sans-serif"> Crowe</text></g><g class="node" transform="translate(40.21385808254603,-45.24009766043169)"><circle class="outline" cx="0" cy="0" r="25" fill="#F79767" stroke="#f36924" stroke-width="2px"/><text text-anchor="middle" pointer-events="none" font-family="sans-serif" dy="1.5625" font-size="25" fill="#FFFFFF"/><text text-anchor="middle" pointer-events="none" font-family="sans-serif" dy="1.5625" font-size="25" fill="#FFFFFF"/><text text-anchor="middle" pointer-events="none" x="0" y="0" font-size="10px" fill="#FFFFFF" font-family="sans-serif"> Jerry</text><text text-anchor="middle" pointer-events="none" x="0" y="10" font-size="10px" fill="#FFFFFF" font-family="sans-serif"> Maguire</text></g><g class="node" transform="translate(-63.04224532494608,97.57741805401204)"><circle class="outline" cx="0" cy="0" r="25" fill="#57C7E3" stroke="#23b3d7" stroke-width="2px"/><text text-anchor="middle" pointer-events="none" font-family="sans-serif" dy="1.5625" font-size="25" fill="#2A2C34"/><text text-anchor="middle" pointer-events="none" font-family="sans-serif" dy="1.5625" font-size="25" fill="#2A2C34"/><text text-anchor="middle" pointer-events="none" x="0" y="0" font-size="10px" fill="#2A2C34" font-family="sans-serif"> Nancy</text><text text-anchor="middle" pointer-events="none" x="0" y="10" font-size="10px" fill="#2A2C34" font-family="sans-serif"> Meyers</text></g><g class="node" transform="translate(-32.427271710504364,198.19024370111083)"><circle class="outline" cx="0" cy="0" r="25" fill="#F79767" stroke="#f36924" stroke-width="2px"/><text text-anchor="middle" pointer-events="none" font-family="sans-serif" dy="1.5625" font-size="25" fill="#FFFFFF"/><text text-anchor="middle" pointer-events="none" x="0" y="5" font-size="10px" fill="#FFFFFF" font-family="sans-serif"> Somethi…</text></g></g></svg>