<svg xmlns="http://www.w3.org/2000/svg" width="200.86680603027344" height="224.5769805908203" viewBox="-3.6847171783447266 -35.3350715637207 200.86680603027344 224.5769805908203"><title>Neo4j Graph Visualization</title><desc>Created using Neo4j (http://www.neo4j.com/)</desc><g class="layer relationships"><g class="relationship" transform="translate(168.18209010874986 57.41966590810206) rotate(465.5501982999304)"><path class="outline" fill="#A5ABB6" stroke="none" d="M 25 0.5 L 25.475762724333094 0.5 L 25.475762724333094 -0.5 L 25 -0.5 Z M 60.811700224333094 0.5 L 61.28746294866619 0.5 L 61.28746294866619 3.5 L 68.28746294866619 0 L 61.28746294866619 -3.5 L 61.28746294866619 -0.5 L 60.811700224333094 -0.5 Z"/><text text-anchor="middle" pointer-events="none" font-size="8px" fill="#000000" x="43.143731474333094" y="3" transform="rotate(180 43.143731474333094 0)" font-family="sans-serif">ACTE…</text></g><g class="relationship" transform="translate(168.18209010874986 57.41966590810206) rotate(215.04481445311472)"><path class="outline" fill="#A5ABB6" stroke="none" d="M 25 0.5 L 29.233252796841967 0.5 L 29.233252796841967 -0.5 L 25 -0.5 Z M 74.79575279684197 0.5 L 79.02900559368393 0.5 L 79.02900559368393 3.5 L 86.02900559368393 0 L 79.02900559368393 -3.5 L 79.02900559368393 -0.5 L 74.79575279684197 -0.5 Z"/><text text-anchor="middle" pointer-events="none" font-size="8px" fill="#000000" x="52.01450279684197" y="3" transform="rotate(180 52.01450279684197 0)" font-family="sans-serif">ACTED_IN</text></g><g class="relationship" transform="translate(168.18209010874986 57.41966590810206) rotate(489.09789009549684)"><path class="outline" fill="#A5ABB6" stroke="none" d="M 25 0.5 L 39.96424983209623 0.5 L 39.96424983209623 -0.5 L 25 -0.5 Z M 85.52674983209623 0.5 L 100.49099966419246 0.5 L 100.49099966419246 3.5 L 107.49099966419246 0 L 100.49099966419246 -3.5 L 100.49099966419246 -0.5 L 85.52674983209623 -0.5 Z"/><text text-anchor="middle" pointer-events="none" font-size="8px" fill="#000000" x="62.74549983209623" y="3" transform="rotate(180 62.74549983209623 0)" font-family="sans-serif">ACTED_IN</text></g><g class="relationship" transform="translate(25.3152835264007 88.94397129652218) rotate(386.3388129545931)"><path class="outline" fill="#A5ABB6" stroke="none" d="M 25 0.5 L 39.47410449849575 0.5 L 39.47410449849575 -0.5 L 25 -0.5 Z M 85.03660449849575 0.5 L 99.5107089969915 0.5 L 99.5107089969915 3.5 L 106.5107089969915 0 L 99.5107089969915 -3.5 L 99.5107089969915 -0.5 L 85.03660449849575 -0.5 Z"/><text text-anchor="middle" pointer-events="none" font-size="8px" fill="#000000" x="62.25535449849575" y="3" font-family="sans-serif">ACTED_IN</text></g><g class="relationship" transform="translate(25.3152835264007 88.94397129652218) rotate(298.60889333674766)"><path class="outline" fill="#A5ABB6" stroke="none" d="M 25 0.5 L 27.98353197288911 0.5 L 27.98353197288911 -0.5 L 25 -0.5 Z M 73.54603197288911 0.5 L 76.52956394577822 0.5 L 76.52956394577822 3.5 L 83.52956394577822 0 L 76.52956394577822 -3.5 L 76.52956394577822 -0.5 L 73.54603197288911 -0.5 Z"/><text text-anchor="middle" pointer-events="none" font-size="8px" fill="#000000" x="50.76478197288911" y="3" font-family="sans-serif">ACTED_IN</text></g><g class="relationship" transform="translate(25.3152835264007 88.94397129652218) rotate(410.24341795012737)"><path class="outline" fill="#A5ABB6" stroke="none" d="M 25 0.5 L 25.203564399177367 0.5 L 25.203564399177367 -0.5 L 25 -0.5 Z M 60.53950189917737 0.5 L 60.743066298354734 0.5 L 60.743066298354734 3.5 L 67.74306629835473 0 L 60.743066298354734 -3.5 L 60.743066298354734 -0.5 L 60.53950189917737 -0.5 Z"/><text text-anchor="middle" pointer-events="none" font-size="8px" fill="#000000" x="42.87153314917737" y="3" font-family="sans-serif">ACTE…</text></g></g><g class="layer nodes"><g class="node" transform="translate(143.17335058332182,147.29242980656053)"><circle class="outline" cx="0" cy="0" r="25" fill="#F79767" stroke="#f36924" stroke-width="2px"/><text text-anchor="middle" pointer-events="none" font-family="sans-serif" dy="1.5625" font-size="25" fill="#FFFFFF"/><text text-anchor="middle" pointer-events="none" font-family="sans-serif" dy="1.5625" font-size="25" fill="#FFFFFF"/><text text-anchor="middle" pointer-events="none" font-family="sans-serif" dy="1.5625" font-size="25" fill="#FFFFFF"/><text text-anchor="middle" pointer-events="none" x="0" y="-5" font-size="10px" fill="#FFFFFF" font-family="sans-serif"> The</text><text text-anchor="middle" pointer-events="none" x="0" y="5" font-size="10px" fill="#FFFFFF" font-family="sans-serif"> Matrix</text><text text-anchor="middle" pointer-events="none" x="0" y="15" font-size="10px" fill="#FFFFFF" font-family="sans-serif"> Revol…</text></g><g class="node" transform="translate(168.18209010874986,57.41966590810206)"><circle class="outline" cx="0" cy="0" r="25" fill="#57C7E3" stroke="#23b3d7" stroke-width="2px"/><text text-anchor="middle" pointer-events="none" font-family="sans-serif" dy="1.5625" font-size="25" fill="#2A2C34"/><text text-anchor="middle" pointer-events="none" font-family="sans-serif" dy="1.5625" font-size="25" fill="#2A2C34"/><text text-anchor="middle" pointer-events="none" x="0" y="0" font-size="10px" fill="#2A2C34" font-family="sans-serif"> Hugo</text><text text-anchor="middle" pointer-events="none" x="0" y="10" font-size="10px" fill="#2A2C34" font-family="sans-serif"> Weaving</text></g><g class="node" transform="translate(25.3152835264007,88.94397129652218)"><circle class="outline" cx="0" cy="0" r="25" fill="#57C7E3" stroke="#23b3d7" stroke-width="2px"/><text text-anchor="middle" pointer-events="none" font-family="sans-serif" dy="1.5625" font-size="25" fill="#2A2C34"/><text text-anchor="middle" pointer-events="none" font-family="sans-serif" dy="1.5625" font-size="25" fill="#2A2C34"/><text text-anchor="middle" pointer-events="none" x="0" y="0" font-size="10px" fill="#2A2C34" font-family="sans-serif"> Keanu</text><text text-anchor="middle" pointer-events="none" x="0" y="10" font-size="10px" fill="#2A2C34" font-family="sans-serif"> Reeves</text></g><g class="node" transform="translate(77.28229178249248,-6.3350731107978095)"><circle class="outline" cx="0" cy="0" r="25" fill="#F79767" stroke="#f36924" stroke-width="2px"/><text text-anchor="middle" pointer-events="none" font-family="sans-serif" dy="1.5625" font-size="25" fill="#FFFFFF"/><text text-anchor="middle" pointer-events="none" font-family="sans-serif" dy="1.5625" font-size="25" fill="#FFFFFF"/><text text-anchor="middle" pointer-events="none" font-family="sans-serif" dy="1.5625" font-size="25" fill="#FFFFFF"/><text text-anchor="middle" pointer-events="none" x="0" y="-5" font-size="10px" fill="#FFFFFF" font-family="sans-serif"> The</text><text text-anchor="middle" pointer-events="none" x="0" y="5" font-size="10px" fill="#FFFFFF" font-family="sans-serif"> Matrix</text><text text-anchor="middle" pointer-events="none" x="0" y="15" font-size="10px" fill="#FFFFFF" font-family="sans-serif"> Reloa…</text></g><g class="node" transform="translate(84.62700826796502,160.2419071334167)"><circle class="outline" cx="0" cy="0" r="25" fill="#F79767" stroke="#f36924" stroke-width="2px"/><text text-anchor="middle" pointer-events="none" font-family="sans-serif" dy="1.5625" font-size="25" fill="#FFFFFF"/><text text-anchor="middle" pointer-events="none" font-family="sans-serif" dy="1.5625" font-size="25" fill="#FFFFFF"/><text text-anchor="middle" pointer-events="none" x="0" y="0" font-size="10px" fill="#FFFFFF" font-family="sans-serif"> The</text><text text-anchor="middle" pointer-events="none" x="0" y="10" font-size="10px" fill="#FFFFFF" font-family="sans-serif"> Matrix</text></g></g></svg>