<svg xmlns="http://www.w3.org/2000/svg" width="566.2012939453125" height="561.1318359375" viewBox="-148.68759155273438 -139.647705078125 566.2012939453125 561.1318359375"><title>Neo4j Graph Visualization</title><desc>Created using Neo4j (http://www.neo4j.com/)</desc><g class="layer relationships"><g class="relationship" transform="translate(37.589563627009895 391.55994404917305) rotate(360.48671196757056)"><path class="outline" fill="#A5ABB6" stroke="none" d="M 25 0.5 L 28.11644100035422 0.5 L 28.11644100035422 -0.5 L 25 -0.5 Z M 73.67894100035423 0.5 L 76.79538200070844 0.5 L 76.79538200070844 3.5 L 83.79538200070844 0 L 76.79538200070844 -3.5 L 76.79538200070844 -0.5 L 73.67894100035423 -0.5 Z"/><text text-anchor="middle" pointer-events="none" font-size="8px" fill="#000000" x="50.89769100035422" y="3" font-family="sans-serif">ACTED_IN</text></g><g class="relationship" transform="translate(251.7773153167403 362.34271967107134) rotate(524.0404454559803)"><path class="outline" fill="#A5ABB6" stroke="none" d="M 25 0.5 L 28.52952224026879 0.5 L 28.52952224026879 -0.5 L 25 -0.5 Z M 74.09202224026879 0.5 L 77.62154448053758 0.5 L 77.62154448053758 3.5 L 84.62154448053758 0 L 77.62154448053758 -3.5 L 77.62154448053758 -0.5 L 74.09202224026879 -0.5 Z"/><text text-anchor="middle" pointer-events="none" font-size="8px" fill="#000000" x="51.31077224026879" y="3" transform="rotate(180 51.31077224026879 0)" font-family="sans-serif">ACTED_IN</text></g><g class="relationship" transform="translate(146.8374807610637 284.8671349578794) rotate(450.24302020240015)"><path class="outline" fill="#A5ABB6" stroke="none" d="M 25 0.5 L 27.527726507230568 0.5 L 27.527726507230568 -0.5 L 25 -0.5 Z M 73.09022650723057 0.5 L 75.61795301446114 0.5 L 75.61795301446114 3.5 L 82.61795301446114 0 L 75.61795301446114 -3.5 L 75.61795301446114 -0.5 L 73.09022650723057 -0.5 Z"/><text text-anchor="middle" pointer-events="none" font-size="8px" fill="#000000" x="50.30897650723057" y="3" transform="rotate(180 50.30897650723057 0)" font-family="sans-serif">ACTED_IN</text></g><g class="relationship" transform="translate(388.5136594069066 87.72116248023403) rotate(231.30281624086626)"><path class="outline" fill="#A5ABB6" stroke="none" d="M 25 0.5 L 28.58430378236053 0.5 L 28.58430378236053 -0.5 L 25 -0.5 Z M 74.14680378236054 0.5 L 77.73110756472106 0.5 L 77.73110756472106 3.5 L 84.73110756472106 0 L 77.73110756472106 -3.5 L 77.73110756472106 -0.5 L 74.14680378236054 -0.5 Z"/><text text-anchor="middle" pointer-events="none" font-size="8px" fill="#000000" x="51.36555378236053" y="3" transform="rotate(180 51.36555378236053 0)" font-family="sans-serif">ACTED_IN</text></g><g class="relationship" transform="translate(349.80532949074916 -100.84404931520424) rotate(466.1967879018573)"><path class="outline" fill="#A5ABB6" stroke="none" d="M 25 0.5 L 27.30791338886123 0.5 L 27.30791338886123 -0.5 L 25 -0.5 Z M 72.87041338886124 0.5 L 75.17832677772246 0.5 L 75.17832677772246 3.5 L 82.17832677772246 0 L 75.17832677772246 -3.5 L 75.17832677772246 -0.5 L 72.87041338886124 -0.5 Z"/><text text-anchor="middle" pointer-events="none" font-size="8px" fill="#000000" x="50.08916338886123" y="3" transform="rotate(180 50.08916338886123 0)" font-family="sans-serif">ACTED_IN</text></g><g class="relationship" transform="translate(260.6365810921664 91.0946735458082) rotate(303.6587742996881)"><path class="outline" fill="#A5ABB6" stroke="none" d="M 25 0.5 L 27.190271247648617 0.5 L 27.190271247648617 -0.5 L 25 -0.5 Z M 72.75277124764861 0.5 L 74.94304249529723 0.5 L 74.94304249529723 3.5 L 81.94304249529723 0 L 74.94304249529723 -3.5 L 74.94304249529723 -0.5 L 72.75277124764861 -0.5 Z"/><text text-anchor="middle" pointer-events="none" font-size="8px" fill="#000000" x="49.97152124764862" y="3" font-family="sans-serif">ACTED_IN</text></g><g class="relationship" transform="translate(234.85962005333943 -70.58659006176467) rotate(400.51074881979935)"><path class="outline" fill="#A5ABB6" stroke="none" d="M 25 0.5 L 29.651576936079728 0.5 L 29.651576936079728 -0.5 L 25 -0.5 Z M 75.21407693607972 0.5 L 79.86565387215946 0.5 L 79.86565387215946 3.5 L 86.86565387215946 0 L 79.86565387215946 -3.5 L 79.86565387215946 -0.5 L 75.21407693607972 -0.5 Z"/><text text-anchor="middle" pointer-events="none" font-size="8px" fill="#000000" x="52.43282693607973" y="3" font-family="sans-serif">ACTED_IN</text></g><g class="relationship" transform="translate(9.465204887855595 6.366944839088989) rotate(253.1446801714377)"><path class="outline" fill="#A5ABB6" stroke="none" d="M 25 0.5 L 34.852376927770045 0.5 L 34.852376927770045 -0.5 L 25 -0.5 Z M 80.41487692777005 0.5 L 90.26725385554009 0.5 L 90.26725385554009 3.5 L 97.26725385554009 0 L 90.26725385554009 -3.5 L 90.26725385554009 -0.5 L 80.41487692777005 -0.5 Z"/><text text-anchor="middle" pointer-events="none" font-size="8px" fill="#000000" x="57.633626927770045" y="3" transform="rotate(180 57.633626927770045 0)" font-family="sans-serif">ACTED_IN</text></g><g class="relationship" transform="translate(9.465204887855595 6.366944839088989) rotate(515.987739805095)"><path class="outline" fill="#A5ABB6" stroke="none" d="M 25 0.5 L 42.47675080734534 0.5 L 42.47675080734534 -0.5 L 25 -0.5 Z M 88.03925080734534 0.5 L 105.51600161469068 0.5 L 105.51600161469068 3.5 L 112.51600161469068 0 L 105.51600161469068 -3.5 L 105.51600161469068 -0.5 L 88.03925080734534 -0.5 Z"/><text text-anchor="middle" pointer-events="none" font-size="8px" fill="#000000" x="65.25800080734534" y="3" transform="rotate(180 65.25800080734534 0)" font-family="sans-serif">ACTED_IN</text></g><g class="relationship" transform="translate(9.465204887855595 6.366944839088989) rotate(486.5852431299599)"><path class="outline" fill="#A5ABB6" stroke="none" d="M 25 0.5 L 26.47992164400935 0.5 L 26.47992164400935 -0.5 L 25 -0.5 Z M 67.59320289400935 0.5 L 69.0731245380187 0.5 L 69.0731245380187 3.5 L 76.0731245380187 0 L 69.0731245380187 -3.5 L 69.0731245380187 -0.5 L 67.59320289400935 -0.5 Z"/><text text-anchor="middle" pointer-events="none" font-size="8px" fill="#000000" x="47.03656226900935" y="3" transform="rotate(180 47.03656226900935 0)" font-family="sans-serif">ACTED…</text></g><g class="relationship" transform="translate(-52.340339401148576 -18.56322298056983) rotate(285.97045763055405)"><path class="outline" fill="#A5ABB6" stroke="none" d="M 25 0.5 L 26.722675016487123 0.5 L 26.722675016487123 -0.5 L 25 -0.5 Z M 62.05861251648712 0.5 L 63.78128753297425 0.5 L 63.78128753297425 3.5 L 70.78128753297425 0 L 63.78128753297425 -3.5 L 63.78128753297425 -0.5 L 62.05861251648712 -0.5 Z"/><text text-anchor="middle" pointer-events="none" font-size="8px" fill="#000000" x="44.39064376648712" y="3" font-family="sans-serif">ACTE…</text></g><g class="relationship" transform="translate(-52.340339401148576 -18.56322298056983) rotate(488.26798916111824)"><path class="outline" fill="#A5ABB6" stroke="none" d="M 25 0.5 L 25.232904559903808 0.5 L 25.232904559903808 -0.5 L 25 -0.5 Z M 70.7954045599038 0.5 L 71.02830911980762 0.5 L 71.02830911980762 3.5 L 78.02830911980762 0 L 71.02830911980762 -3.5 L 71.02830911980762 -0.5 L 70.7954045599038 -0.5 Z"/><text text-anchor="middle" pointer-events="none" font-size="8px" fill="#000000" x="48.01415455990381" y="3" transform="rotate(180 48.01415455990381 0)" font-family="sans-serif">ACTED_IN</text></g><g class="relationship" transform="translate(-52.340339401148576 -18.56322298056983) rotate(449.1553145845836)"><path class="outline" fill="#A5ABB6" stroke="none" d="M 25 0.5 L 26.768993281438114 0.5 L 26.768993281438114 -0.5 L 25 -0.5 Z M 72.33149328143811 0.5 L 74.10048656287623 0.5 L 74.10048656287623 3.5 L 81.10048656287623 0 L 74.10048656287623 -3.5 L 74.10048656287623 -0.5 L 72.33149328143811 -0.5 Z"/><text text-anchor="middle" pointer-events="none" font-size="8px" fill="#000000" x="49.550243281438114" y="3" font-family="sans-serif">ACTED_IN</text></g><g class="relationship" transform="translate(-119.68758362724948 -31.729102071071193) rotate(319.89452124222146)"><path class="outline" fill="#A5ABB6" stroke="none" d="M 25 0.5 L 34.97224256595972 0.5 L 34.97224256595972 -0.5 L 25 -0.5 Z M 80.53474256595972 0.5 L 90.50698513191944 0.5 L 90.50698513191944 3.5 L 97.50698513191944 0 L 90.50698513191944 -3.5 L 90.50698513191944 -0.5 L 80.53474256595972 -0.5 Z"/><text text-anchor="middle" pointer-events="none" font-size="8px" fill="#000000" x="57.75349256595972" y="3" font-family="sans-serif">ACTED_IN</text></g><g class="relationship" transform="translate(-119.68758362724948 -31.729102071071193) rotate(447.8459958957563)"><path class="outline" fill="#A5ABB6" stroke="none" d="M 25 0.5 L 25.89314623986362 0.5 L 25.89314623986362 -0.5 L 25 -0.5 Z M 61.22908373986362 0.5 L 62.12222997972724 0.5 L 62.12222997972724 3.5 L 69.12222997972724 0 L 62.12222997972724 -3.5 L 62.12222997972724 -0.5 L 61.22908373986362 -0.5 Z"/><text text-anchor="middle" pointer-events="none" font-size="8px" fill="#000000" x="43.56111498986362" y="3" font-family="sans-serif">ACTE…</text></g><g class="relationship" transform="translate(-119.68758362724948 -31.729102071071193) rotate(419.9785405451987)"><path class="outline" fill="#A5ABB6" stroke="none" d="M 25 0.5 L 42.58545809032678 0.5 L 42.58545809032678 -0.5 L 25 -0.5 Z M 88.14795809032678 0.5 L 105.73341618065356 0.5 L 105.73341618065356 3.5 L 112.73341618065356 0 L 105.73341618065356 -3.5 L 105.73341618065356 -0.5 L 88.14795809032678 -0.5 Z"/><text text-anchor="middle" pointer-events="none" font-size="8px" fill="#000000" x="65.36670809032678" y="3" font-family="sans-serif">ACTED_IN</text></g><g class="relationship" transform="translate(-78.42229167528826 199.15934192755992) rotate(283.9094600891409)"><path class="outline" fill="#A5ABB6" stroke="none" d="M 25 0.5 L 31.221725093562476 0.5 L 31.221725093562476 -0.5 L 25 -0.5 Z M 76.78422509356247 0.5 L 83.00595018712495 0.5 L 83.00595018712495 3.5 L 90.00595018712495 0 L 83.00595018712495 -3.5 L 83.00595018712495 -0.5 L 76.78422509356247 -0.5 Z"/><text text-anchor="middle" pointer-events="none" font-size="8px" fill="#000000" x="54.002975093562476" y="3" font-family="sans-serif">ACTED_IN</text></g></g><g class="layer nodes"><g class="node" transform="translate(37.589563627009895,391.55994404917305)"><circle class="outline" cx="0" cy="0" r="25" fill="#57C7E3" stroke="#23b3d7" stroke-width="2px"/><text text-anchor="middle" pointer-events="none" font-family="sans-serif" dy="1.5625" font-size="25" fill="#2A2C34"/><text text-anchor="middle" pointer-events="none" font-family="sans-serif" dy="1.5625" font-size="25" fill="#2A2C34"/><text text-anchor="middle" pointer-events="none" x="0" y="0" font-size="10px" fill="#2A2C34" font-family="sans-serif"> Tom</text><text text-anchor="middle" pointer-events="none" x="0" y="10" font-size="10px" fill="#2A2C34" font-family="sans-serif"> Hanks</text></g><g class="node" transform="translate(146.38102029350625,392.48411993174085)"><circle class="outline" cx="0" cy="0" r="25" fill="#F79767" stroke="#f36924" stroke-width="2px"/><text text-anchor="middle" pointer-events="none" font-family="sans-serif" dy="1.5625" font-size="25" fill="#FFFFFF"/><text text-anchor="middle" pointer-events="none" font-family="sans-serif" dy="1.5625" font-size="25" fill="#FFFFFF"/><text text-anchor="middle" pointer-events="none" x="0" y="0" font-size="10px" fill="#FFFFFF" font-family="sans-serif"> Cloud</text><text text-anchor="middle" pointer-events="none" x="0" y="10" font-size="10px" fill="#FFFFFF" font-family="sans-serif"> Atlas</text></g><g class="node" transform="translate(251.7773153167403,362.34271967107134)"><circle class="outline" cx="0" cy="0" r="25" fill="#57C7E3" stroke="#23b3d7" stroke-width="2px"/><text text-anchor="middle" pointer-events="none" font-family="sans-serif" dy="1.5625" font-size="25" fill="#2A2C34"/><text text-anchor="middle" pointer-events="none" font-family="sans-serif" dy="1.5625" font-size="25" fill="#2A2C34"/><text text-anchor="middle" pointer-events="none" x="0" y="0" font-size="10px" fill="#2A2C34" font-family="sans-serif"> Jim</text><text text-anchor="middle" pointer-events="none" x="0" y="10" font-size="10px" fill="#2A2C34" font-family="sans-serif"> Broadb…</text></g><g class="node" transform="translate(146.8374807610637,284.8671349578794)"><circle class="outline" cx="0" cy="0" r="25" fill="#57C7E3" stroke="#23b3d7" stroke-width="2px"/><text text-anchor="middle" pointer-events="none" font-family="sans-serif" dy="1.5625" font-size="25" fill="#2A2C34"/><text text-anchor="middle" pointer-events="none" font-family="sans-serif" dy="1.5625" font-size="25" fill="#2A2C34"/><text text-anchor="middle" pointer-events="none" x="0" y="0" font-size="10px" fill="#2A2C34" font-family="sans-serif"> Halle</text><text text-anchor="middle" pointer-events="none" x="0" y="10" font-size="10px" fill="#2A2C34" font-family="sans-serif"> Berry</text></g><g class="node" transform="translate(388.5136594069066,87.72116248023403)"><circle class="outline" cx="0" cy="0" r="25" fill="#57C7E3" stroke="#23b3d7" stroke-width="2px"/><text text-anchor="middle" pointer-events="none" font-family="sans-serif" dy="1.5625" font-size="25" fill="#2A2C34"/><text text-anchor="middle" pointer-events="none" x="0" y="5" font-size="10px" fill="#2A2C34" font-family="sans-serif"> John Hurt</text></g><g class="node" transform="translate(319.90929962527366,2.0802973145162613)"><circle class="outline" cx="0" cy="0" r="25" fill="#F79767" stroke="#f36924" stroke-width="2px"/><text text-anchor="middle" pointer-events="none" font-family="sans-serif" dy="1.5625" font-size="25" fill="#FFFFFF"/><text text-anchor="middle" pointer-events="none" font-family="sans-serif" dy="1.5625" font-size="25" fill="#FFFFFF"/><text text-anchor="middle" pointer-events="none" x="0" y="0" font-size="10px" fill="#FFFFFF" font-family="sans-serif"> V for</text><text text-anchor="middle" pointer-events="none" x="0" y="10" font-size="10px" fill="#FFFFFF" font-family="sans-serif"> Vendetta</text></g><g class="node" transform="translate(349.80532949074916,-100.84404931520424)"><circle class="outline" cx="0" cy="0" r="25" fill="#57C7E3" stroke="#23b3d7" stroke-width="2px"/><text text-anchor="middle" pointer-events="none" font-family="sans-serif" dy="1.5625" font-size="25" fill="#2A2C34"/><text text-anchor="middle" pointer-events="none" font-family="sans-serif" dy="1.5625" font-size="25" fill="#2A2C34"/><text text-anchor="middle" pointer-events="none" x="0" y="0" font-size="10px" fill="#2A2C34" font-family="sans-serif"> Stephen</text><text text-anchor="middle" pointer-events="none" x="0" y="10" font-size="10px" fill="#2A2C34" font-family="sans-serif"> Rea</text></g><g class="node" transform="translate(260.6365810921664,91.0946735458082)"><circle class="outline" cx="0" cy="0" r="25" fill="#57C7E3" stroke="#23b3d7" stroke-width="2px"/><text text-anchor="middle" pointer-events="none" font-family="sans-serif" dy="1.5625" font-size="25" fill="#2A2C34"/><text text-anchor="middle" pointer-events="none" font-family="sans-serif" dy="1.5625" font-size="25" fill="#2A2C34"/><text text-anchor="middle" pointer-events="none" x="0" y="0" font-size="10px" fill="#2A2C34" font-family="sans-serif"> Natalie</text><text text-anchor="middle" pointer-events="none" x="0" y="10" font-size="10px" fill="#2A2C34" font-family="sans-serif"> Portman</text></g><g class="node" transform="translate(234.85962005333943,-70.58659006176467)"><circle class="outline" cx="0" cy="0" r="25" fill="#57C7E3" stroke="#23b3d7" stroke-width="2px"/><text text-anchor="middle" pointer-events="none" font-family="sans-serif" dy="1.5625" font-size="25" fill="#2A2C34"/><text text-anchor="middle" pointer-events="none" x="0" y="5" font-size="10px" fill="#2A2C34" font-family="sans-serif"> Ben Miles</text></g><g class="node" transform="translate(9.465204887855595,6.366944839088989)"><circle class="outline" cx="0" cy="0" r="25" fill="#57C7E3" stroke="#23b3d7" stroke-width="2px"/><text text-anchor="middle" pointer-events="none" font-family="sans-serif" dy="1.5625" font-size="25" fill="#2A2C34"/><text text-anchor="middle" pointer-events="none" font-family="sans-serif" dy="1.5625" font-size="25" fill="#2A2C34"/><text text-anchor="middle" pointer-events="none" x="0" y="0" font-size="10px" fill="#2A2C34" font-family="sans-serif"> Laurence</text><text text-anchor="middle" pointer-events="none" x="0" y="10" font-size="10px" fill="#2A2C34" font-family="sans-serif"> Fishbur…</text></g><g class="node" transform="translate(-25.986914892803338,-110.64770624543502)"><circle class="outline" cx="0" cy="0" r="25" fill="#F79767" stroke="#f36924" stroke-width="2px"/><text text-anchor="middle" pointer-events="none" font-family="sans-serif" dy="1.5625" font-size="25" fill="#FFFFFF"/><text text-anchor="middle" pointer-events="none" font-family="sans-serif" dy="1.5625" font-size="25" fill="#FFFFFF"/><text text-anchor="middle" pointer-events="none" font-family="sans-serif" dy="1.5625" font-size="25" fill="#FFFFFF"/><text text-anchor="middle" pointer-events="none" x="0" y="-5" font-size="10px" fill="#FFFFFF" font-family="sans-serif"> The</text><text text-anchor="middle" pointer-events="none" x="0" y="5" font-size="10px" fill="#FFFFFF" font-family="sans-serif"> Matrix</text><text text-anchor="middle" pointer-events="none" x="0" y="15" font-size="10px" fill="#FFFFFF" font-family="sans-serif"> Revol…</text></g><g class="node" transform="translate(-52.340339401148576,-18.56322298056983)"><circle class="outline" cx="0" cy="0" r="25" fill="#57C7E3" stroke="#23b3d7" stroke-width="2px"/><text text-anchor="middle" pointer-events="none" font-family="sans-serif" dy="1.5625" font-size="25" fill="#2A2C34"/><text text-anchor="middle" pointer-events="none" x="0" y="5" font-size="10px" fill="#2A2C34" font-family="sans-serif"> Carrie-A…</text></g><g class="node" transform="translate(-119.68758362724948,-31.729102071071193)"><circle class="outline" cx="0" cy="0" r="25" fill="#57C7E3" stroke="#23b3d7" stroke-width="2px"/><text text-anchor="middle" pointer-events="none" font-family="sans-serif" dy="1.5625" font-size="25" fill="#2A2C34"/><text text-anchor="middle" pointer-events="none" font-family="sans-serif" dy="1.5625" font-size="25" fill="#2A2C34"/><text text-anchor="middle" pointer-events="none" x="0" y="0" font-size="10px" fill="#2A2C34" font-family="sans-serif"> Keanu</text><text text-anchor="middle" pointer-events="none" x="0" y="10" font-size="10px" fill="#2A2C34" font-family="sans-serif"> Reeves</text></g><g class="node" transform="translate(-116.14994232158486,62.326622211659846)"><circle class="outline" cx="0" cy="0" r="25" fill="#F79767" stroke="#f36924" stroke-width="2px"/><text text-anchor="middle" pointer-events="none" font-family="sans-serif" dy="1.5625" font-size="25" fill="#FFFFFF"/><text text-anchor="middle" pointer-events="none" font-family="sans-serif" dy="1.5625" font-size="25" fill="#FFFFFF"/><text text-anchor="middle" pointer-events="none" font-family="sans-serif" dy="1.5625" font-size="25" fill="#FFFFFF"/><text text-anchor="middle" pointer-events="none" x="0" y="-5" font-size="10px" fill="#FFFFFF" font-family="sans-serif"> The</text><text text-anchor="middle" pointer-events="none" x="0" y="5" font-size="10px" fill="#FFFFFF" font-family="sans-serif"> Matrix</text><text text-anchor="middle" pointer-events="none" x="0" y="15" font-size="10px" fill="#FFFFFF" font-family="sans-serif"> Reloa…</text></g><g class="node" transform="translate(-78.42229167528826,199.15934192755992)"><circle class="outline" cx="0" cy="0" r="25" fill="#57C7E3" stroke="#23b3d7" stroke-width="2px"/><text text-anchor="middle" pointer-events="none" font-family="sans-serif" dy="1.5625" font-size="25" fill="#2A2C34"/><text text-anchor="middle" pointer-events="none" font-family="sans-serif" dy="1.5625" font-size="25" fill="#2A2C34"/><text text-anchor="middle" pointer-events="none" x="0" y="0" font-size="10px" fill="#2A2C34" font-family="sans-serif"> Emil</text><text text-anchor="middle" pointer-events="none" x="0" y="10" font-size="10px" fill="#2A2C34" font-family="sans-serif"> Eifrem</text></g><g class="node" transform="translate(-50.7762052199472,87.52573371682763)"><circle class="outline" cx="0" cy="0" r="25" fill="#F79767" stroke="#f36924" stroke-width="2px"/><text text-anchor="middle" pointer-events="none" font-family="sans-serif" dy="1.5625" font-size="25" fill="#FFFFFF"/><text text-anchor="middle" pointer-events="none" font-family="sans-serif" dy="1.5625" font-size="25" fill="#FFFFFF"/><text text-anchor="middle" pointer-events="none" x="0" y="0" font-size="10px" fill="#FFFFFF" font-family="sans-serif"> The</text><text text-anchor="middle" pointer-events="none" x="0" y="10" font-size="10px" fill="#FFFFFF" font-family="sans-serif"> Matrix</text></g></g></svg>