<svg xmlns="http://www.w3.org/2000/svg" width="346.7679443359375" height="368.06756591796875" viewBox="-50.23495864868164 -61.22392272949219 346.7679443359375 368.06756591796875"><title>Neo4j Graph Visualization</title><desc>Created using Neo4j (http://www.neo4j.com/)</desc><g class="layer relationships"><g class="relationship" transform="translate(195.12264378713567 277.84363880828397) rotate(233.8697628788962)"><path class="outline" fill="#A5ABB6" stroke="none" d="M 25 0.5 L 28.169588942772755 0.5 L 28.169588942772755 -0.5 L 25 -0.5 Z M 75.06021394277275 0.5 L 78.22980288554551 0.5 L 78.22980288554551 3.5 L 85.22980288554551 0 L 78.22980288554551 -3.5 L 78.22980288554551 -0.5 L 75.06021394277275 -0.5 Z"/><text text-anchor="middle" pointer-events="none" font-size="8px" fill="#000000" x="51.614901442772755" y="3" transform="rotate(180 51.614901442772755 0)" font-family="sans-serif">DIRECTED</text></g><g class="relationship" transform="translate(120.0256111386257 95.01850489875997) rotate(297.4527451853562)"><path class="outline" fill="#A5ABB6" stroke="none" d="M 24.018736134675446,6.953439040707552 L 24.277555179777966,5.987513214418485 A 89.57880631307673 89.57880631307673 0 0 0 24.84833963958967,6.13844018840399 L 24.59589246394271,7.1060508660568615 A 90.57880631307673 90.57880631307673 0 0 1 24.018736134675446,6.953439040707552 Z M 67.31205832299287,7.838095110942973 L 67.09291432187597,6.8624025841834 A 89.57880631307673 89.57880631307673 0 0 0 67.66853508661373,6.731122021107262 L 66.9918255067325,3.808441035351724 L 74.60090898335686,5.639246499010301 L 68.57081452645538,10.628030002114645 L 67.89410494657415,7.705349016359107 A 90.57880631307673 90.57880631307673 0 0 1 67.31205832299287,7.838095110942973"/><text text-anchor="middle" pointer-events="none" font-size="8px" fill="#000000" x="45.91876592099267" y="12.526612282489026" font-family="sans-serif">PRODU…</text></g><g class="relationship" transform="translate(120.0256111386257 95.01850489875997) rotate(297.4527451853562)"><path class="outline" fill="#A5ABB6" stroke="none" d="M 24.018736134675446,-6.953439040707552 L 24.277555179777966,-5.987513214418485 A 89.57880631307673 89.57880631307673 0 0 1 28.289313600467707,-6.963949568675446 L 28.07527923810218,-7.9407757004546795 A 90.57880631307673 90.57880631307673 0 0 0 24.018736134675446,-6.953439040707552 Z M 63.80611304009337,-8.553109479100414 L 63.62567506112012,-7.569523114949277 A 89.57880631307673 89.57880631307673 0 0 1 67.66853508661373,-6.731122021107262 L 66.9918255067325,-3.808441035351724 L 74.60090898335686,-5.639246499010301 L 68.57081452645538,-10.628030002114645 L 67.89410494657415,-7.705349016359107 A 90.57880631307673 90.57880631307673 0 0 0 63.80611304009337,-8.553109479100414"/><text text-anchor="middle" pointer-events="none" font-size="8px" fill="#000000" x="45.918765920992634" y="-6.526612282489026" font-family="sans-serif">WROTE</text></g><g class="relationship" transform="translate(120.0256111386257 95.01850489875997) rotate(443.8521326783961)"><path class="outline" fill="#A5ABB6" stroke="none" d="M 25 0.5 L 27.11206291168775 0.5 L 27.11206291168775 -0.5 L 25 -0.5 Z M 60.22534416168775 0.5 L 62.3374070733755 0.5 L 62.3374070733755 3.5 L 69.3374070733755 0 L 62.3374070733755 -3.5 L 62.3374070733755 -0.5 L 60.22534416168775 -0.5 Z"/><text text-anchor="middle" pointer-events="none" font-size="8px" fill="#000000" x="43.66870353668775" y="3" font-family="sans-serif">DIRE…</text></g><g class="relationship" transform="translate(120.0256111386257 95.01850489875997) rotate(242.4783614568904)"><path class="outline" fill="#A5ABB6" stroke="none" d="M 25 0.5 L 37.47228470778518 0.5 L 37.47228470778518 -0.5 L 25 -0.5 Z M 84.36290970778518 0.5 L 96.83519441557036 0.5 L 96.83519441557036 3.5 L 103.83519441557036 0 L 96.83519441557036 -3.5 L 96.83519441557036 -0.5 L 84.36290970778518 -0.5 Z"/><text text-anchor="middle" pointer-events="none" font-size="8px" fill="#000000" x="60.91759720778518" y="3" transform="rotate(180 60.91759720778518 0)" font-family="sans-serif">DIRECTED</text></g><g class="relationship" transform="translate(120.0256111386257 95.01850489875997) rotate(183.57232161687023)"><path class="outline" fill="#A5ABB6" stroke="none" d="M 25 0.5 L 43.82247814898673 0.5 L 43.82247814898673 -0.5 L 25 -0.5 Z M 90.71310314898673 0.5 L 109.53558129797347 0.5 L 109.53558129797347 3.5 L 116.53558129797347 0 L 109.53558129797347 -3.5 L 109.53558129797347 -0.5 L 90.71310314898673 -0.5 Z"/><text text-anchor="middle" pointer-events="none" font-size="8px" fill="#000000" x="67.26779064898673" y="3" transform="rotate(180 67.26779064898673 0)" font-family="sans-serif">DIRECTED</text></g><g class="relationship" transform="translate(120.0256111386257 95.01850489875997) rotate(497.7525545209235)"><path class="outline" fill="#A5ABB6" stroke="none" d="M 25 0.5 L 34.03517622046735 0.5 L 34.03517622046735 -0.5 L 25 -0.5 Z M 80.92580122046735 0.5 L 89.9609774409347 0.5 L 89.9609774409347 3.5 L 96.9609774409347 0 L 89.9609774409347 -3.5 L 89.9609774409347 -0.5 L 80.92580122046735 -0.5 Z"/><text text-anchor="middle" pointer-events="none" font-size="8px" fill="#000000" x="57.48048872046735" y="3" transform="rotate(180 57.48048872046735 0)" font-family="sans-serif">DIRECTED</text></g><g class="relationship" transform="translate(62.74498745233059 77.3596446922887) rotate(325.7152541795472)"><path class="outline" fill="#A5ABB6" stroke="none" d="M 24.018736134675446,6.953439040707552 L 24.277555179777966,5.987513214418485 A 140.6030495651 140.6030495651 0 0 0 33.109059309088565,8.051085604578276 L 32.913051875516715,9.031688014316586 A 141.6030495651 141.6030495651 0 0 1 24.018736134675446,6.953439040707552 Z M 84.58177321643015,9.74462490712284 L 84.41289640845775,8.75898774075327 A 140.6030495651 140.6030495651 0 0 0 93.29797474959204,6.939872827570445 L 92.601766396136,4.021775171805989 L 100.22290400528513,5.801736278800407 L 94.22625255420012,10.830669701923053 L 93.53004420074407,7.912572046158598 A 141.6030495651 141.6030495651 0 0 1 84.58177321643015,9.74462490712284"/><text text-anchor="middle" pointer-events="none" font-size="8px" fill="#000000" x="58.72151521381826" y="14.26501548162392" font-family="sans-serif">PRODUCED</text></g><g class="relationship" transform="translate(62.74498745233059 77.3596446922887) rotate(325.7152541795472)"><path class="outline" fill="#A5ABB6" stroke="none" d="M 24.018736134675446,-6.953439040707552 L 24.277555179777966,-5.987513214418485 A 140.6030495651 140.6030495651 0 0 1 40.97002926280669,-9.39175889275299 L 40.82993078695684,-10.381896467570016 A 141.6030495651 141.6030495651 0 0 0 24.018736134675446,-6.953439040707552 Z M 76.63065445811357,-10.875883081365316 L 76.51792840948384,-9.882256975649312 A 140.6030495651 140.6030495651 0 0 1 93.29797474959204,-6.939872827570445 L 92.601766396136,-4.021775171805989 L 100.22290400528513,-5.801736278800407 L 94.22625255420012,-10.830669701923053 L 93.53004420074407,-7.912572046158598 A 141.6030495651 141.6030495651 0 0 0 76.63065445811357,-10.875883081365316"/><text text-anchor="middle" pointer-events="none" font-size="8px" fill="#000000" x="58.7215152138182" y="-8.26501548162392" font-family="sans-serif">WROTE</text></g><g class="relationship" transform="translate(62.74498745233059 77.3596446922887) rotate(418.84331357216786)"><path class="outline" fill="#A5ABB6" stroke="none" d="M 25 0.5 L 38.17474776459848 0.5 L 38.17474776459848 -0.5 L 25 -0.5 Z M 85.06537276459848 0.5 L 98.24012052919696 0.5 L 98.24012052919696 3.5 L 105.24012052919696 0 L 98.24012052919696 -3.5 L 98.24012052919696 -0.5 L 85.06537276459848 -0.5 Z"/><text text-anchor="middle" pointer-events="none" font-size="8px" fill="#000000" x="61.62006026459848" y="3" font-family="sans-serif">DIRECTED</text></g><g class="relationship" transform="translate(62.74498745233059 77.3596446922887) rotate(268.6644815930289)"><path class="outline" fill="#A5ABB6" stroke="none" d="M 25 0.5 L 25.366250070601282 0.5 L 25.366250070601282 -0.5 L 25 -0.5 Z M 64.25687507060128 0.5 L 64.62312514120256 0.5 L 64.62312514120256 3.5 L 71.62312514120256 0 L 64.62312514120256 -3.5 L 64.62312514120256 -0.5 L 64.25687507060128 -0.5 Z"/><text text-anchor="middle" pointer-events="none" font-size="8px" fill="#000000" x="44.81156257060128" y="3" transform="rotate(180 44.81156257060128 0)" font-family="sans-serif">DIREC…</text></g><g class="relationship" transform="translate(62.74498745233059 77.3596446922887) rotate(533.9909858345056)"><path class="outline" fill="#A5ABB6" stroke="none" d="M 25 0.5 L 27.72196428244692 0.5 L 27.72196428244692 -0.5 L 25 -0.5 Z M 49.72196428244692 0.5 L 52.44392856489384 0.5 L 52.44392856489384 3.5 L 59.44392856489384 0 L 52.44392856489384 -3.5 L 52.44392856489384 -0.5 L 49.72196428244692 -0.5 Z"/><text text-anchor="middle" pointer-events="none" font-size="8px" fill="#000000" x="38.72196428244692" y="3" transform="rotate(180 38.72196428244692 0)" font-family="sans-serif">DI…</text></g><g class="relationship" transform="translate(62.74498745233059 77.3596446922887) rotate(468.3218888822098)"><path class="outline" fill="#A5ABB6" stroke="none" d="M 25 0.5 L 25.54429863820817 0.5 L 25.54429863820817 -0.5 L 25 -0.5 Z M 72.43492363820818 0.5 L 72.97922227641634 0.5 L 72.97922227641634 3.5 L 79.97922227641634 0 L 72.97922227641634 -3.5 L 72.97922227641634 -0.5 L 72.43492363820818 -0.5 Z"/><text text-anchor="middle" pointer-events="none" font-size="8px" fill="#000000" x="48.98961113820817" y="3" transform="rotate(180 48.98961113820817 0)" font-family="sans-serif">DIRECTED</text></g><g class="relationship" transform="translate(267.53299343605363 -32.22392223897583) rotate(518.8440286989727)"><path class="outline" fill="#A5ABB6" stroke="none" d="M 25 0.5 L 27.67969874485909 0.5 L 27.67969874485909 -0.5 L 25 -0.5 Z M 74.57032374485908 0.5 L 77.25002248971818 0.5 L 77.25002248971818 3.5 L 84.25002248971818 0 L 77.25002248971818 -3.5 L 77.25002248971818 -0.5 L 74.57032374485908 -0.5 Z"/><text text-anchor="middle" pointer-events="none" font-size="8px" fill="#000000" x="51.12501124485909" y="3" transform="rotate(180 51.12501124485909 0)" font-family="sans-serif">DIRECTED</text></g></g><g class="layer nodes"><g class="node" transform="translate(130.12865180632474,188.81336052845097)"><circle class="outline" cx="0" cy="0" r="25" fill="#F79767" stroke="#f36924" stroke-width="2px"/><text text-anchor="middle" pointer-events="none" font-family="sans-serif" dy="1.5625" font-size="25" fill="#FFFFFF"/><text text-anchor="middle" pointer-events="none" font-family="sans-serif" dy="1.5625" font-size="25" fill="#FFFFFF"/><text text-anchor="middle" pointer-events="none" x="0" y="0" font-size="10px" fill="#FFFFFF" font-family="sans-serif"> Cloud</text><text text-anchor="middle" pointer-events="none" x="0" y="10" font-size="10px" fill="#FFFFFF" font-family="sans-serif"> Atlas</text></g><g class="node" transform="translate(195.12264378713567,277.84363880828397)"><circle class="outline" cx="0" cy="0" r="25" fill="#57C7E3" stroke="#23b3d7" stroke-width="2px"/><text text-anchor="middle" pointer-events="none" font-family="sans-serif" dy="1.5625" font-size="25" fill="#2A2C34"/><text text-anchor="middle" pointer-events="none" font-family="sans-serif" dy="1.5625" font-size="25" fill="#2A2C34"/><text text-anchor="middle" pointer-events="none" x="0" y="0" font-size="10px" fill="#2A2C34" font-family="sans-serif"> Tom</text><text text-anchor="middle" pointer-events="none" x="0" y="10" font-size="10px" fill="#2A2C34" font-family="sans-serif"> Tykwer</text></g><g class="node" transform="translate(120.0256111386257,95.01850489875997)"><circle class="outline" cx="0" cy="0" r="25" fill="#57C7E3" stroke="#23b3d7" stroke-width="2px"/><text text-anchor="middle" pointer-events="none" font-family="sans-serif" dy="1.5625" font-size="25" fill="#2A2C34"/><text text-anchor="middle" pointer-events="none" font-family="sans-serif" dy="1.5625" font-size="25" fill="#2A2C34"/><text text-anchor="middle" pointer-events="none" x="0" y="0" font-size="10px" fill="#2A2C34" font-family="sans-serif"> Lana</text><text text-anchor="middle" pointer-events="none" x="0" y="10" font-size="10px" fill="#2A2C34" font-family="sans-serif"> Wacho…</text></g><g class="node" transform="translate(62.74498745233059,77.3596446922887)"><circle class="outline" cx="0" cy="0" r="25" fill="#57C7E3" stroke="#23b3d7" stroke-width="2px"/><text text-anchor="middle" pointer-events="none" font-family="sans-serif" dy="1.5625" font-size="25" fill="#2A2C34"/><text text-anchor="middle" pointer-events="none" font-family="sans-serif" dy="1.5625" font-size="25" fill="#2A2C34"/><text text-anchor="middle" pointer-events="none" x="0" y="0" font-size="10px" fill="#2A2C34" font-family="sans-serif"> Lilly</text><text text-anchor="middle" pointer-events="none" x="0" y="10" font-size="10px" fill="#2A2C34" font-family="sans-serif"> Wacho…</text></g><g class="node" transform="translate(165.64626789696902,7.205287402192129)"><circle class="outline" cx="0" cy="0" r="25" fill="#F79767" stroke="#f36924" stroke-width="2px"/><text text-anchor="middle" pointer-events="none" font-family="sans-serif" dy="1.5625" font-size="25" fill="#FFFFFF"/><text text-anchor="middle" pointer-events="none" font-family="sans-serif" dy="1.5625" font-size="25" fill="#FFFFFF"/><text text-anchor="middle" pointer-events="none" x="0" y="0" font-size="10px" fill="#FFFFFF" font-family="sans-serif"> V for</text><text text-anchor="middle" pointer-events="none" x="0" y="10" font-size="10px" fill="#FFFFFF" font-family="sans-serif"> Vendetta</text></g><g class="node" transform="translate(267.53299343605363,-32.22392223897583)"><circle class="outline" cx="0" cy="0" r="25" fill="#57C7E3" stroke="#23b3d7" stroke-width="2px"/><text text-anchor="middle" pointer-events="none" font-family="sans-serif" dy="1.5625" font-size="25" fill="#2A2C34"/><text text-anchor="middle" pointer-events="none" font-family="sans-serif" dy="1.5625" font-size="25" fill="#2A2C34"/><text text-anchor="middle" pointer-events="none" x="0" y="0" font-size="10px" fill="#2A2C34" font-family="sans-serif"> James</text><text text-anchor="middle" pointer-events="none" x="0" y="10" font-size="10px" fill="#2A2C34" font-family="sans-serif"> Marshall</text></g><g class="node" transform="translate(60.49298427807211,-19.237233071724045)"><circle class="outline" cx="0" cy="0" r="25" fill="#F79767" stroke="#f36924" stroke-width="2px"/><text text-anchor="middle" pointer-events="none" font-family="sans-serif" dy="1.5625" font-size="25" fill="#FFFFFF"/><text text-anchor="middle" pointer-events="none" font-family="sans-serif" dy="1.5625" font-size="25" fill="#FFFFFF"/><text text-anchor="middle" pointer-events="none" font-family="sans-serif" dy="1.5625" font-size="25" fill="#FFFFFF"/><text text-anchor="middle" pointer-events="none" x="0" y="-5" font-size="10px" fill="#FFFFFF" font-family="sans-serif"> The</text><text text-anchor="middle" pointer-events="none" x="0" y="5" font-size="10px" fill="#FFFFFF" font-family="sans-serif"> Matrix</text><text text-anchor="middle" pointer-events="none" x="0" y="15" font-size="10px" fill="#FFFFFF" font-family="sans-serif"> Revol…</text></g><g class="node" transform="translate(-21.23495870517341,86.19965118864502)"><circle class="outline" cx="0" cy="0" r="25" fill="#F79767" stroke="#f36924" stroke-width="2px"/><text text-anchor="middle" pointer-events="none" font-family="sans-serif" dy="1.5625" font-size="25" fill="#FFFFFF"/><text text-anchor="middle" pointer-events="none" font-family="sans-serif" dy="1.5625" font-size="25" fill="#FFFFFF"/><text text-anchor="middle" pointer-events="none" font-family="sans-serif" dy="1.5625" font-size="25" fill="#FFFFFF"/><text text-anchor="middle" pointer-events="none" x="0" y="-5" font-size="10px" fill="#FFFFFF" font-family="sans-serif"> The</text><text text-anchor="middle" pointer-events="none" x="0" y="5" font-size="10px" fill="#FFFFFF" font-family="sans-serif"> Matrix</text><text text-anchor="middle" pointer-events="none" x="0" y="15" font-size="10px" fill="#FFFFFF" font-family="sans-serif"> Reloa…</text></g><g class="node" transform="translate(29.744228814842636,177.01699283637436)"><circle class="outline" cx="0" cy="0" r="25" fill="#F79767" stroke="#f36924" stroke-width="2px"/><text text-anchor="middle" pointer-events="none" font-family="sans-serif" dy="1.5625" font-size="25" fill="#FFFFFF"/><text text-anchor="middle" pointer-events="none" font-family="sans-serif" dy="1.5625" font-size="25" fill="#FFFFFF"/><text text-anchor="middle" pointer-events="none" x="0" y="0" font-size="10px" fill="#FFFFFF" font-family="sans-serif"> The</text><text text-anchor="middle" pointer-events="none" x="0" y="10" font-size="10px" fill="#FFFFFF" font-family="sans-serif"> Matrix</text></g></g></svg>