<svg xmlns="http://www.w3.org/2000/svg" width="238.07699584960938" height="247.64697265625" viewBox="-9.168678283691406 -10.226287841796875 238.07699584960938 247.64697265625"><title>Neo4j Graph Visualization</title><desc>Created using Neo4j (http://www.neo4j.com/)</desc><g class="layer relationships"><g class="relationship" transform="translate(125.1224592967418 128.09083491826897) rotate(408.18965806267914)"><path class="outline" fill="#A5ABB6" stroke="none" d="M 25 0.5 L 27.605675161873677 0.5 L 27.605675161873677 -0.5 L 25 -0.5 Z M 73.16817516187368 0.5 L 75.77385032374735 0.5 L 75.77385032374735 3.5 L 82.77385032374735 0 L 75.77385032374735 -3.5 L 75.77385032374735 -0.5 L 73.16817516187368 -0.5 Z"/><text text-anchor="middle" pointer-events="none" font-size="8px" fill="#000000" x="50.38692516187368" y="3" font-family="sans-serif">ACTED_IN</text></g><g class="relationship" transform="translate(125.1224592967418 128.09083491826897) rotate(311.4714765586939)"><path class="outline" fill="#A5ABB6" stroke="none" d="M 25 0.5 L 30.182461347018936 0.5 L 30.182461347018936 -0.5 L 25 -0.5 Z M 75.74496134701894 0.5 L 80.92742269403787 0.5 L 80.92742269403787 3.5 L 87.92742269403787 0 L 80.92742269403787 -3.5 L 80.92742269403787 -0.5 L 75.74496134701894 -0.5 Z"/><text text-anchor="middle" pointer-events="none" font-size="8px" fill="#000000" x="52.963711347018936" y="3" font-family="sans-serif">ACTED_IN</text></g><g class="relationship" transform="translate(125.1224592967418 128.09083491826897) rotate(254.88470957700474)"><path class="outline" fill="#A5ABB6" stroke="none" d="M 25 0.5 L 30.33609777533976 0.5 L 30.33609777533976 -0.5 L 25 -0.5 Z M 75.89859777533977 0.5 L 81.23469555067952 0.5 L 81.23469555067952 3.5 L 88.23469555067952 0 L 81.23469555067952 -3.5 L 81.23469555067952 -0.5 L 75.89859777533977 -0.5 Z"/><text text-anchor="middle" pointer-events="none" font-size="8px" fill="#000000" x="53.11734777533976" y="3" transform="rotate(180 53.11734777533976 0)" font-family="sans-serif">ACTED_IN</text></g><g class="relationship" transform="translate(125.1224592967418 128.09083491826897) rotate(201.578087168989)"><path class="outline" fill="#A5ABB6" stroke="none" d="M 25 0.5 L 30.331928528061127 0.5 L 30.331928528061127 -0.5 L 25 -0.5 Z M 75.89442852806113 0.5 L 81.22635705612225 0.5 L 81.22635705612225 3.5 L 88.22635705612225 0 L 81.22635705612225 -3.5 L 81.22635705612225 -0.5 L 75.89442852806113 -0.5 Z"/><text text-anchor="middle" pointer-events="none" font-size="8px" fill="#000000" x="53.11317852806113" y="3" transform="rotate(180 53.11317852806113 0)" font-family="sans-serif">ACTED_IN</text></g><g class="relationship" transform="translate(125.1224592967418 128.09083491826897) rotate(504.9716912358107)"><path class="outline" fill="#A5ABB6" stroke="none" d="M 25 0.5 L 30.17238095141306 0.5 L 30.17238095141306 -0.5 L 25 -0.5 Z M 75.73488095141306 0.5 L 80.90726190282612 0.5 L 80.90726190282612 3.5 L 87.90726190282612 0 L 80.90726190282612 -3.5 L 80.90726190282612 -0.5 L 75.73488095141306 -0.5 Z"/><text text-anchor="middle" pointer-events="none" font-size="8px" fill="#000000" x="52.95363095141306" y="3" transform="rotate(180 52.95363095141306 0)" font-family="sans-serif">ACTED_IN</text></g></g><g class="layer nodes"><g class="node" transform="translate(125.1224592967418,128.09083491826897)"><circle class="outline" cx="0" cy="0" r="25" fill="#57C7E3" stroke="#23b3d7" stroke-width="2px"/><text text-anchor="middle" pointer-events="none" font-family="sans-serif" dy="1.5625" font-size="25" fill="#2A2C34"/><text text-anchor="middle" pointer-events="none" font-family="sans-serif" dy="1.5625" font-size="25" fill="#2A2C34"/><text text-anchor="middle" pointer-events="none" x="0" y="0" font-size="10px" fill="#2A2C34" font-family="sans-serif"> Hugo</text><text text-anchor="middle" pointer-events="none" x="0" y="10" font-size="10px" fill="#2A2C34" font-family="sans-serif"> Weaving</text></g><g class="node" transform="translate(196.97173075870836,208.42068618160778)"><circle class="outline" cx="0" cy="0" r="25" fill="#F79767" stroke="#f36924" stroke-width="2px"/><text text-anchor="middle" pointer-events="none" font-family="sans-serif" dy="1.5625" font-size="25" fill="#FFFFFF"/><text text-anchor="middle" pointer-events="none" font-family="sans-serif" dy="1.5625" font-size="25" fill="#FFFFFF"/><text text-anchor="middle" pointer-events="none" x="0" y="0" font-size="10px" fill="#FFFFFF" font-family="sans-serif"> Cloud</text><text text-anchor="middle" pointer-events="none" x="0" y="10" font-size="10px" fill="#FFFFFF" font-family="sans-serif"> Atlas</text></g><g class="node" transform="translate(199.90831918245476,43.47595468156115)"><circle class="outline" cx="0" cy="0" r="25" fill="#F79767" stroke="#f36924" stroke-width="2px"/><text text-anchor="middle" pointer-events="none" font-family="sans-serif" dy="1.5625" font-size="25" fill="#FFFFFF"/><text text-anchor="middle" pointer-events="none" font-family="sans-serif" dy="1.5625" font-size="25" fill="#FFFFFF"/><text text-anchor="middle" pointer-events="none" x="0" y="0" font-size="10px" fill="#FFFFFF" font-family="sans-serif"> V for</text><text text-anchor="middle" pointer-events="none" x="0" y="10" font-size="10px" fill="#FFFFFF" font-family="sans-serif"> Vendetta</text></g><g class="node" transform="translate(95.59513625319258,18.773711509642055)"><circle class="outline" cx="0" cy="0" r="25" fill="#F79767" stroke="#f36924" stroke-width="2px"/><text text-anchor="middle" pointer-events="none" font-family="sans-serif" dy="1.5625" font-size="25" fill="#FFFFFF"/><text text-anchor="middle" pointer-events="none" font-family="sans-serif" dy="1.5625" font-size="25" fill="#FFFFFF"/><text text-anchor="middle" pointer-events="none" font-family="sans-serif" dy="1.5625" font-size="25" fill="#FFFFFF"/><text text-anchor="middle" pointer-events="none" x="0" y="-5" font-size="10px" fill="#FFFFFF" font-family="sans-serif"> The</text><text text-anchor="middle" pointer-events="none" x="0" y="5" font-size="10px" fill="#FFFFFF" font-family="sans-serif"> Matrix</text><text text-anchor="middle" pointer-events="none" x="0" y="15" font-size="10px" fill="#FFFFFF" font-family="sans-serif"> Revol…</text></g><g class="node" transform="translate(19.831321526840462,86.44969853463815)"><circle class="outline" cx="0" cy="0" r="25" fill="#F79767" stroke="#f36924" stroke-width="2px"/><text text-anchor="middle" pointer-events="none" font-family="sans-serif" dy="1.5625" font-size="25" fill="#FFFFFF"/><text text-anchor="middle" pointer-events="none" font-family="sans-serif" dy="1.5625" font-size="25" fill="#FFFFFF"/><text text-anchor="middle" pointer-events="none" font-family="sans-serif" dy="1.5625" font-size="25" fill="#FFFFFF"/><text text-anchor="middle" pointer-events="none" x="0" y="-5" font-size="10px" fill="#FFFFFF" font-family="sans-serif"> The</text><text text-anchor="middle" pointer-events="none" x="0" y="5" font-size="10px" fill="#FFFFFF" font-family="sans-serif"> Matrix</text><text text-anchor="middle" pointer-events="none" x="0" y="15" font-size="10px" fill="#FFFFFF" font-family="sans-serif"> Reloa…</text></g><g class="node" transform="translate(32.66625334324269,192.89746861480907)"><circle class="outline" cx="0" cy="0" r="25" fill="#F79767" stroke="#f36924" stroke-width="2px"/><text text-anchor="middle" pointer-events="none" font-family="sans-serif" dy="1.5625" font-size="25" fill="#FFFFFF"/><text text-anchor="middle" pointer-events="none" font-family="sans-serif" dy="1.5625" font-size="25" fill="#FFFFFF"/><text text-anchor="middle" pointer-events="none" x="0" y="0" font-size="10px" fill="#FFFFFF" font-family="sans-serif"> The</text><text text-anchor="middle" pointer-events="none" x="0" y="10" font-size="10px" fill="#FFFFFF" font-family="sans-serif"> Matrix</text></g></g></svg>