<svg xmlns="http://www.w3.org/2000/svg" width="285.5685729980469" height="265.73583984375" viewBox="-31.78818702697754 -40.50028991699219 285.5685729980469 265.73583984375"><title>Neo4j Graph Visualization</title><desc>Created using Neo4j (http://www.neo4j.com/)</desc><g class="layer relationships"><g class="relationship" transform="translate(162.04025506523382 196.2355616419667) rotate(243.8931697626581)"><path class="outline" fill="#A5ABB6" stroke="none" d="M 25 0.5 L 36.293647159508545 0.5 L 36.293647159508545 -0.5 L 25 -0.5 Z M 72.06708465950854 0.5 L 83.36073181901709 0.5 L 83.36073181901709 3.5 L 90.36073181901709 0 L 83.36073181901709 -3.5 L 83.36073181901709 -0.5 L 72.06708465950854 -0.5 Z"/><text text-anchor="middle" pointer-events="none" font-size="8px" fill="#000000" x="54.180365909508545" y="3" transform="rotate(180 54.180365909508545 0)" font-family="sans-serif">WROTE</text></g><g class="relationship" transform="translate(224.78039274466707 91.74308529952309) rotate(539.5449873973553)"><path class="outline" fill="#A5ABB6" stroke="none" d="M 25 0.5 L 30.472635504422698 0.5 L 30.472635504422698 -0.5 L 25 -0.5 Z M 76.0351355044227 0.5 L 81.5077710088454 0.5 L 81.5077710088454 3.5 L 88.5077710088454 0 L 81.5077710088454 -3.5 L 81.5077710088454 -0.5 L 76.0351355044227 -0.5 Z"/><text text-anchor="middle" pointer-events="none" font-size="8px" fill="#000000" x="53.2538855044227" y="3" transform="rotate(180 53.2538855044227 0)" font-family="sans-serif">ACTED_IN</text></g><g class="relationship" transform="translate(156.39961555519417 -11.500290060450638) rotate(473.42591739805385)"><path class="outline" fill="#A5ABB6" stroke="none" d="M 25 0.5 L 29.80470648898664 0.5 L 29.80470648898664 -0.5 L 25 -0.5 Z M 76.69533148898664 0.5 L 81.50003797797328 0.5 L 81.50003797797328 3.5 L 88.50003797797328 0 L 81.50003797797328 -3.5 L 81.50003797797328 -0.5 L 76.69533148898664 -0.5 Z"/><text text-anchor="middle" pointer-events="none" font-size="8px" fill="#000000" x="53.25001898898664" y="3" transform="rotate(180 53.25001898898664 0)" font-family="sans-serif">DIRECTED</text></g><g class="relationship" transform="translate(35.70555660454408 5.519127527600371) rotate(409.0623435704043)"><path class="outline" fill="#A5ABB6" stroke="none" d="M 25 0.5 L 31.38536037149573 0.5 L 31.38536037149573 -0.5 L 25 -0.5 Z M 76.94786037149572 0.5 L 83.33322074299146 0.5 L 83.33322074299146 3.5 L 90.33322074299146 0 L 83.33322074299146 -3.5 L 83.33322074299146 -0.5 L 76.94786037149572 -0.5 Z"/><text text-anchor="middle" pointer-events="none" font-size="8px" fill="#000000" x="54.16661037149573" y="3" font-family="sans-serif">ACTED_IN</text></g><g class="relationship" transform="translate(-2.7881866828953727 106.16401787348319) rotate(353.2405317717237)"><path class="outline" fill="#A5ABB6" stroke="none" d="M 25 0.5 L 31.15014833971778 0.5 L 31.15014833971778 -0.5 L 25 -0.5 Z M 76.71264833971779 0.5 L 82.86279667943556 0.5 L 82.86279667943556 3.5 L 89.86279667943556 0 L 82.86279667943556 -3.5 L 82.86279667943556 -0.5 L 76.71264833971779 -0.5 Z"/><text text-anchor="middle" pointer-events="none" font-size="8px" fill="#000000" x="53.93139833971778" y="3" font-family="sans-serif">ACTED_IN</text></g><g class="relationship" transform="translate(54.32276672774605 192.40079504752325) rotate(299.72315576069457)"><path class="outline" fill="#A5ABB6" stroke="none" d="M 25 0.5 L 36.04805565290495 0.5 L 36.04805565290495 -0.5 L 25 -0.5 Z M 71.82149315290495 0.5 L 82.8695488058099 0.5 L 82.8695488058099 3.5 L 89.8695488058099 0 L 82.8695488058099 -3.5 L 82.8695488058099 -0.5 L 71.82149315290495 -0.5 Z"/><text text-anchor="middle" pointer-events="none" font-size="8px" fill="#000000" x="53.93477440290495" y="3" font-family="sans-serif">WROTE</text></g></g><g class="layer nodes"><g class="node" transform="translate(111.27620100947533,92.64449416197975)"><circle class="outline" cx="0" cy="0" r="25" fill="#F79767" stroke="#f36924" stroke-width="2px"/><text text-anchor="middle" pointer-events="none" font-family="sans-serif" dy="1.5625" font-size="25" fill="#FFFFFF"/><text text-anchor="middle" pointer-events="none" font-family="sans-serif" dy="1.5625" font-size="25" fill="#FFFFFF"/><text text-anchor="middle" pointer-events="none" font-family="sans-serif" dy="1.5625" font-size="25" fill="#FFFFFF"/><text text-anchor="middle" pointer-events="none" x="0" y="-5" font-size="10px" fill="#FFFFFF" font-family="sans-serif"> Captain</text><text text-anchor="middle" pointer-events="none" x="0" y="5" font-size="10px" fill="#FFFFFF" font-family="sans-serif"> America:</text><text text-anchor="middle" pointer-events="none" x="0" y="15" font-size="10px" fill="#FFFFFF" font-family="sans-serif"> The Fi…</text></g><g class="node" transform="translate(162.04025506523382,196.2355616419667)"><circle class="outline" cx="0" cy="0" r="25" fill="#57C7E3" stroke="#23b3d7" stroke-width="2px"/><text text-anchor="middle" pointer-events="none" font-family="sans-serif" dy="1.5625" font-size="25" fill="#2A2C34"/><text text-anchor="middle" pointer-events="none" font-family="sans-serif" dy="1.5625" font-size="25" fill="#2A2C34"/><text text-anchor="middle" pointer-events="none" x="0" y="0" font-size="10px" fill="#2A2C34" font-family="sans-serif"> Stephen</text><text text-anchor="middle" pointer-events="none" x="0" y="10" font-size="10px" fill="#2A2C34" font-family="sans-serif"> McFeely</text></g><g class="node" transform="translate(224.78039274466707,91.74308529952309)"><circle class="outline" cx="0" cy="0" r="25" fill="#57C7E3" stroke="#23b3d7" stroke-width="2px"/><text text-anchor="middle" pointer-events="none" font-family="sans-serif" dy="1.5625" font-size="25" fill="#2A2C34"/><text text-anchor="middle" pointer-events="none" font-family="sans-serif" dy="1.5625" font-size="25" fill="#2A2C34"/><text text-anchor="middle" pointer-events="none" font-family="sans-serif" dy="1.5625" font-size="25" fill="#2A2C34"/><text text-anchor="middle" pointer-events="none" x="0" y="-5" font-size="10px" fill="#2A2C34" font-family="sans-serif"> Samuel</text><text text-anchor="middle" pointer-events="none" x="0" y="5" font-size="10px" fill="#2A2C34" font-family="sans-serif"> L.</text><text text-anchor="middle" pointer-events="none" x="0" y="15" font-size="10px" fill="#2A2C34" font-family="sans-serif"> Jackson</text></g><g class="node" transform="translate(156.39961555519417,-11.500290060450638)"><circle class="outline" cx="0" cy="0" r="25" fill="#57C7E3" stroke="#23b3d7" stroke-width="2px"/><text text-anchor="middle" pointer-events="none" font-family="sans-serif" dy="1.5625" font-size="25" fill="#2A2C34"/><text text-anchor="middle" pointer-events="none" font-family="sans-serif" dy="1.5625" font-size="25" fill="#2A2C34"/><text text-anchor="middle" pointer-events="none" x="0" y="0" font-size="10px" fill="#2A2C34" font-family="sans-serif"> Joe</text><text text-anchor="middle" pointer-events="none" x="0" y="10" font-size="10px" fill="#2A2C34" font-family="sans-serif"> Johnston</text></g><g class="node" transform="translate(35.70555660454408,5.519127527600371)"><circle class="outline" cx="0" cy="0" r="25" fill="#A5ABB6" stroke="#9AA1AC" stroke-width="2px"/><text text-anchor="middle" pointer-events="none" font-family="sans-serif" dy="1.5625" font-size="25" fill="#FFFFFF"/><text text-anchor="middle" pointer-events="none" x="0" y="5" font-size="10px" fill="#FFFFFF" font-family="sans-serif"> </text></g><g class="node" transform="translate(-2.7881866828953727,106.16401787348319)"><circle class="outline" cx="0" cy="0" r="25" fill="#57C7E3" stroke="#23b3d7" stroke-width="2px"/><text text-anchor="middle" pointer-events="none" font-family="sans-serif" dy="1.5625" font-size="25" fill="#2A2C34"/><text text-anchor="middle" pointer-events="none" font-family="sans-serif" dy="1.5625" font-size="25" fill="#2A2C34"/><text text-anchor="middle" pointer-events="none" x="0" y="0" font-size="10px" fill="#2A2C34" font-family="sans-serif"> Chris</text><text text-anchor="middle" pointer-events="none" x="0" y="10" font-size="10px" fill="#2A2C34" font-family="sans-serif"> Evans</text></g><g class="node" transform="translate(54.32276672774605,192.40079504752325)"><circle class="outline" cx="0" cy="0" r="25" fill="#57C7E3" stroke="#23b3d7" stroke-width="2px"/><text text-anchor="middle" pointer-events="none" font-family="sans-serif" dy="1.5625" font-size="25" fill="#2A2C34"/><text text-anchor="middle" pointer-events="none" x="0" y="5" font-size="10px" fill="#2A2C34" font-family="sans-serif"> Christop…</text></g></g></svg>