<svg xmlns="http://www.w3.org/2000/svg" width="618.1068725585938" height="621.4927978515625" viewBox="-224.6543426513672 -224.9757537841797 618.1068725585938 621.4927978515625"><title>Neo4j Graph Visualization</title><desc>Created using Neo4j (http://www.neo4j.com/)</desc><g class="layer relationships"><g class="relationship" transform="translate(-76.76350504083607 142.97838689331383) rotate(338.1335135786114)"><path class="outline" fill="#A5ABB6" stroke="none" d="M 25 0.5 L 67.52716702707131 0.5 L 67.52716702707131 -0.5 L 25 -0.5 Z M 101.97247952707131 0.5 L 144.49964655414263 0.5 L 144.49964655414263 3.5 L 151.49964655414263 0 L 144.49964655414263 -3.5 L 144.49964655414263 -0.5 L 101.97247952707131 -0.5 Z"/><text text-anchor="middle" pointer-events="none" font-size="8px" fill="#000000" x="84.74982327707131" y="3" font-family="sans-serif">ORIGIN</text></g><g class="relationship" transform="translate(-76.76350504083607 142.97838689331383) rotate(203.72101297137243)"><path class="outline" fill="#A5ABB6" stroke="none" d="M 25 0.5 L 31.837366700766324 0.5 L 31.837366700766324 -0.5 L 25 -0.5 Z M 91.02486670076632 0.5 L 97.86223340153265 0.5 L 97.86223340153265 3.5 L 104.86223340153265 0 L 97.86223340153265 -3.5 L 97.86223340153265 -0.5 L 91.02486670076632 -0.5 Z"/><text text-anchor="middle" pointer-events="none" font-size="8px" fill="#000000" x="61.431116700766324" y="3" transform="rotate(180 61.431116700766324 0)" font-family="sans-serif">DESTINATION</text></g><g class="relationship" transform="translate(262.8526373229677 142.20887157331472) rotate(200.28021582620352)"><path class="outline" fill="#A5ABB6" stroke="none" d="M 25 0.5 L 72.99443689822655 0.5 L 72.99443689822655 -0.5 L 25 -0.5 Z M 107.43974939822655 0.5 L 155.4341862964531 0.5 L 155.4341862964531 3.5 L 162.4341862964531 0 L 155.4341862964531 -3.5 L 155.4341862964531 -0.5 L 107.43974939822655 -0.5 Z"/><text text-anchor="middle" pointer-events="none" font-size="8px" fill="#000000" x="90.21709314822655" y="3" transform="rotate(180 90.21709314822655 0)" font-family="sans-serif">ORIGIN</text></g><g class="relationship" transform="translate(262.8526373229677 142.20887157331472) rotate(378.8238507607896)"><path class="outline" fill="#A5ABB6" stroke="none" d="M 25 0.5 L 25.917203972318028 0.5 L 25.917203972318028 -0.5 L 25 -0.5 Z M 69.25314147231802 0.5 L 70.17034544463606 0.5 L 70.17034544463606 3.5 L 77.17034544463606 0 L 70.17034544463606 -3.5 L 70.17034544463606 -0.5 L 69.25314147231802 -0.5 Z"/><text text-anchor="middle" pointer-events="none" font-size="8px" fill="#000000" x="47.58517272231803" y="3" font-family="sans-serif">DESTIN…</text></g><g class="relationship" transform="translate(230.87562563360999 1.7993490324087567) rotate(512.323096830899)"><path class="outline" fill="#A5ABB6" stroke="none" d="M 25 0.5 L 60.488374138066135 0.5 L 60.488374138066135 -0.5 L 25 -0.5 Z M 94.93368663806613 0.5 L 130.42206077613227 0.5 L 130.42206077613227 3.5 L 137.42206077613227 0 L 130.42206077613227 -3.5 L 130.42206077613227 -0.5 L 94.93368663806613 -0.5 Z"/><text text-anchor="middle" pointer-events="none" font-size="8px" fill="#000000" x="77.71103038806613" y="3" transform="rotate(180 77.71103038806613 0)" font-family="sans-serif">ORIGIN</text></g><g class="relationship" transform="translate(230.87562563360999 1.7993490324087567) rotate(331.7742110800728)"><path class="outline" fill="#A5ABB6" stroke="none" d="M 25 0.5 L 42.70828054563711 0.5 L 42.70828054563711 -0.5 L 25 -0.5 Z M 101.89578054563711 0.5 L 119.60406109127422 0.5 L 119.60406109127422 3.5 L 126.60406109127422 0 L 119.60406109127422 -3.5 L 119.60406109127422 -0.5 L 101.89578054563711 -0.5 Z"/><text text-anchor="middle" pointer-events="none" font-size="8px" fill="#000000" x="72.30203054563711" y="3" font-family="sans-serif">DESTINATION</text></g><g class="relationship" transform="translate(-37.45642270301294 97.73976402917754) rotate(350.65021665569975)"><path class="outline" fill="#A5ABB6" stroke="none" d="M 25 0.5 L 42.36251839450737 0.5 L 42.36251839450737 -0.5 L 25 -0.5 Z M 76.80783089450736 0.5 L 94.17034928901474 0.5 L 94.17034928901474 3.5 L 101.17034928901474 0 L 94.17034928901474 -3.5 L 94.17034928901474 -0.5 L 76.80783089450736 -0.5 Z"/><text text-anchor="middle" pointer-events="none" font-size="8px" fill="#000000" x="59.58517464450737" y="3" font-family="sans-serif">ORIGIN</text></g><g class="relationship" transform="translate(-37.45642270301294 97.73976402917754) rotate(182.53461124849946)"><path class="outline" fill="#A5ABB6" stroke="none" d="M 25 0.5 L 46.08266932299216 0.5 L 46.08266932299216 -0.5 L 25 -0.5 Z M 105.27016932299216 0.5 L 126.35283864598432 0.5 L 126.35283864598432 3.5 L 133.35283864598432 0 L 126.35283864598432 -3.5 L 126.35283864598432 -0.5 L 105.27016932299216 -0.5 Z"/><text text-anchor="middle" pointer-events="none" font-size="8px" fill="#000000" x="75.67641932299216" y="3" transform="rotate(180 75.67641932299216 0)" font-family="sans-serif">DESTINATION</text></g><g class="relationship" transform="translate(96.17023967418986 237.38333871473353) rotate(266.73608813802497)"><path class="outline" fill="#A5ABB6" stroke="none" d="M 25 0.5 L 59.47812131392064 0.5 L 59.47812131392064 -0.5 L 25 -0.5 Z M 93.92343381392064 0.5 L 128.40155512784128 0.5 L 128.40155512784128 3.5 L 135.40155512784128 0 L 128.40155512784128 -3.5 L 128.40155512784128 -0.5 L 93.92343381392064 -0.5 Z"/><text text-anchor="middle" pointer-events="none" font-size="8px" fill="#000000" x="76.70077756392064" y="3" transform="rotate(180 76.70077756392064 0)" font-family="sans-serif">ORIGIN</text></g><g class="relationship" transform="translate(96.17023967418986 237.38333871473353) rotate(469.7681230804982)"><path class="outline" fill="#A5ABB6" stroke="none" d="M 25 0.5 L 36.047677768128295 0.5 L 36.047677768128295 -0.5 L 25 -0.5 Z M 95.2351777681283 0.5 L 106.28285553625659 0.5 L 106.28285553625659 3.5 L 113.28285553625659 0 L 106.28285553625659 -3.5 L 106.28285553625659 -0.5 L 95.2351777681283 -0.5 Z"/><text text-anchor="middle" pointer-events="none" font-size="8px" fill="#000000" x="65.6414277681283" y="3" transform="rotate(180 65.6414277681283 0)" font-family="sans-serif">DESTINATION</text></g><g class="relationship" transform="translate(108.24061962142082 -97.98316163673067) rotate(456.89945332116713)"><path class="outline" fill="#A5ABB6" stroke="none" d="M 25 0.5 L 67.52898731643018 0.5 L 67.52898731643018 -0.5 L 25 -0.5 Z M 101.97429981643018 0.5 L 144.50328713286035 0.5 L 144.50328713286035 3.5 L 151.50328713286035 0 L 144.50328713286035 -3.5 L 144.50328713286035 -0.5 L 101.97429981643018 -0.5 Z"/><text text-anchor="middle" pointer-events="none" font-size="8px" fill="#000000" x="84.75164356643018" y="3" transform="rotate(180 84.75164356643018 0)" font-family="sans-serif">ORIGIN</text></g><g class="relationship" transform="translate(108.24061962142082 -97.98316163673067) rotate(251.08718664754093)"><path class="outline" fill="#A5ABB6" stroke="none" d="M 25 0.5 L 26.624450910993723 0.5 L 26.624450910993723 -0.5 L 25 -0.5 Z M 69.96038841099372 0.5 L 71.58483932198745 0.5 L 71.58483932198745 3.5 L 78.58483932198745 0 L 71.58483932198745 -3.5 L 71.58483932198745 -0.5 L 69.96038841099372 -0.5 Z"/><text text-anchor="middle" pointer-events="none" font-size="8px" fill="#000000" x="48.29241966099372" y="3" transform="rotate(180 48.29241966099372 0)" font-family="sans-serif">DESTIN…</text></g><g class="relationship" transform="translate(210.1130933539218 114.00981515024475) rotate(196.63312221441367)"><path class="outline" fill="#A5ABB6" stroke="none" d="M 25 0.5 L 43.50236917809775 0.5 L 43.50236917809775 -0.5 L 25 -0.5 Z M 77.94768167809775 0.5 L 96.4500508561955 0.5 L 96.4500508561955 3.5 L 103.4500508561955 0 L 96.4500508561955 -3.5 L 96.4500508561955 -0.5 L 77.94768167809775 -0.5 Z"/><text text-anchor="middle" pointer-events="none" font-size="8px" fill="#000000" x="60.72502542809775" y="3" transform="rotate(180 60.72502542809775 0)" font-family="sans-serif">ORIGIN</text></g><g class="relationship" transform="translate(210.1130933539218 114.00981515024475) rotate(382.25841422058403)"><path class="outline" fill="#A5ABB6" stroke="none" d="M 25 0.5 L 47.64517578855589 0.5 L 47.64517578855589 -0.5 L 25 -0.5 Z M 106.83267578855589 0.5 L 129.47785157711178 0.5 L 129.47785157711178 3.5 L 136.47785157711178 0 L 129.47785157711178 -3.5 L 129.47785157711178 -0.5 L 106.83267578855589 -0.5 Z"/><text text-anchor="middle" pointer-events="none" font-size="8px" fill="#000000" x="77.23892578855589" y="3" font-family="sans-serif">DESTINATION</text></g><g class="relationship" transform="translate(260.40167654765196 81.30888198456987) rotate(181.34384287257774)"><path class="outline" fill="#A5ABB6" stroke="none" d="M 25 0.5 L 65.98315764591092 0.5 L 65.98315764591092 -0.5 L 25 -0.5 Z M 100.42847014591092 0.5 L 141.41162779182184 0.5 L 141.41162779182184 3.5 L 148.41162779182184 0 L 141.41162779182184 -3.5 L 141.41162779182184 -0.5 L 100.42847014591092 -0.5 Z"/><text text-anchor="middle" pointer-events="none" font-size="8px" fill="#000000" x="83.20581389591092" y="3" transform="rotate(180 83.20581389591092 0)" font-family="sans-serif">ORIGIN</text></g><g class="relationship" transform="translate(260.40167654765196 81.30888198456987) rotate(403.42999815718866)"><path class="outline" fill="#A5ABB6" stroke="none" d="M 25 0.5 L 35.17580554139049 0.5 L 35.17580554139049 -0.5 L 25 -0.5 Z M 94.36330554139049 0.5 L 104.53911108278098 0.5 L 104.53911108278098 3.5 L 111.53911108278098 0 L 104.53911108278098 -3.5 L 104.53911108278098 -0.5 L 94.36330554139049 -0.5 Z"/><text text-anchor="middle" pointer-events="none" font-size="8px" fill="#000000" x="64.76955554139049" y="3" font-family="sans-serif">DESTINATION</text></g><g class="relationship" transform="translate(-94.193806794213 78.83877467363182) rotate(359.49518986885505)"><path class="outline" fill="#A5ABB6" stroke="none" d="M 25 0.5 L 69.89663663252954 0.5 L 69.89663663252954 -0.5 L 25 -0.5 Z M 104.34194913252954 0.5 L 149.23858576505907 0.5 L 149.23858576505907 3.5 L 156.23858576505907 0 L 149.23858576505907 -3.5 L 149.23858576505907 -0.5 L 104.34194913252954 -0.5 Z"/><text text-anchor="middle" pointer-events="none" font-size="8px" fill="#000000" x="87.11929288252954" y="3" font-family="sans-serif">ORIGIN</text></g><g class="relationship" transform="translate(-94.193806794213 78.83877467363182) rotate(533.311532707482)"><path class="outline" fill="#A5ABB6" stroke="none" d="M 25 0.5 L 25.909929808580436 0.5 L 25.909929808580436 -0.5 L 25 -0.5 Z M 69.24586730858044 0.5 L 70.15579711716087 0.5 L 70.15579711716087 3.5 L 77.15579711716087 0 L 70.15579711716087 -3.5 L 70.15579711716087 -0.5 L 69.24586730858044 -0.5 Z"/><text text-anchor="middle" pointer-events="none" font-size="8px" fill="#000000" x="47.577898558580436" y="3" transform="rotate(180 47.577898558580436 0)" font-family="sans-serif">DESTIN…</text></g><g class="relationship" transform="translate(139.7963875996995 -47.0365215615629) rotate(473.00216846990554)"><path class="outline" fill="#A5ABB6" stroke="none" d="M 25 0.5 L 46.78404543149421 0.5 L 46.78404543149421 -0.5 L 25 -0.5 Z M 81.2293579314942 0.5 L 103.01340336298841 0.5 L 103.01340336298841 3.5 L 110.01340336298841 0 L 103.01340336298841 -3.5 L 103.01340336298841 -0.5 L 81.2293579314942 -0.5 Z"/><text text-anchor="middle" pointer-events="none" font-size="8px" fill="#000000" x="64.0067016814942" y="3" transform="rotate(180 64.0067016814942 0)" font-family="sans-serif">ORIGIN</text></g><g class="relationship" transform="translate(139.7963875996995 -47.0365215615629) rotate(246.38040580234048)"><path class="outline" fill="#A5ABB6" stroke="none" d="M 25 0.5 L 48.184925983085606 0.5 L 48.184925983085606 -0.5 L 25 -0.5 Z M 107.3724259830856 0.5 L 130.5573519661712 0.5 L 130.5573519661712 3.5 L 137.5573519661712 0 L 130.5573519661712 -3.5 L 130.5573519661712 -0.5 L 107.3724259830856 -0.5 Z"/><text text-anchor="middle" pointer-events="none" font-size="8px" fill="#000000" x="77.7786759830856" y="3" transform="rotate(180 77.7786759830856 0)" font-family="sans-serif">DESTINATION</text></g><g class="relationship" transform="translate(-71.52156974807129 23.38769573805192) rotate(378.75992876118903)"><path class="outline" fill="#A5ABB6" stroke="none" d="M 25 0.5 L 63.005086355933415 0.5 L 63.005086355933415 -0.5 L 25 -0.5 Z M 97.45039885593341 0.5 L 135.45548521186683 0.5 L 135.45548521186683 3.5 L 142.45548521186683 0 L 135.45548521186683 -3.5 L 135.45548521186683 -0.5 L 97.45039885593341 -0.5 Z"/><text text-anchor="middle" pointer-events="none" font-size="8px" fill="#000000" x="80.22774260593341" y="3" font-family="sans-serif">ORIGIN</text></g><g class="relationship" transform="translate(-71.52156974807129 23.38769573805192) rotate(511.5175943738414)"><path class="outline" fill="#A5ABB6" stroke="none" d="M 25 0.5 L 37.51939814820949 0.5 L 37.51939814820949 -0.5 L 25 -0.5 Z M 96.70689814820949 0.5 L 109.22629629641898 0.5 L 109.22629629641898 3.5 L 116.22629629641898 0 L 109.22629629641898 -3.5 L 109.22629629641898 -0.5 L 96.70689814820949 -0.5 Z"/><text text-anchor="middle" pointer-events="none" font-size="8px" fill="#000000" x="67.11314814820949" y="3" transform="rotate(180 67.11314814820949 0)" font-family="sans-serif">DESTINATION</text></g><g class="relationship" transform="translate(168.17314473435533 -99.71297892797719) rotate(474.6318715458983)"><path class="outline" fill="#A5ABB6" stroke="none" d="M 25 0.5 L 76.61182997017906 0.5 L 76.61182997017906 -0.5 L 25 -0.5 Z M 111.05714247017906 0.5 L 162.66897244035812 0.5 L 162.66897244035812 3.5 L 169.66897244035812 0 L 162.66897244035812 -3.5 L 162.66897244035812 -0.5 L 111.05714247017906 -0.5 Z"/><text text-anchor="middle" pointer-events="none" font-size="8px" fill="#000000" x="93.83448622017906" y="3" transform="rotate(180 93.83448622017906 0)" font-family="sans-serif">ORIGIN</text></g><g class="relationship" transform="translate(168.17314473435533 -99.71297892797719) rotate(225.83185804880384)"><path class="outline" fill="#A5ABB6" stroke="none" d="M 25 0.5 L 34.0072022750181 0.5 L 34.0072022750181 -0.5 L 25 -0.5 Z M 93.1947022750181 0.5 L 102.2019045500362 0.5 L 102.2019045500362 3.5 L 109.2019045500362 0 L 102.2019045500362 -3.5 L 102.2019045500362 -0.5 L 93.1947022750181 -0.5 Z"/><text text-anchor="middle" pointer-events="none" font-size="8px" fill="#000000" x="63.6009522750181" y="3" transform="rotate(180 63.6009522750181 0)" font-family="sans-serif">DESTINATION</text></g><g class="relationship" transform="translate(36.60374998148202 230.88314406446835) rotate(288.1728532778066)"><path class="outline" fill="#A5ABB6" stroke="none" d="M 25 0.5 L 60.130909974380415 0.5 L 60.130909974380415 -0.5 L 25 -0.5 Z M 94.57622247438042 0.5 L 129.70713244876083 0.5 L 129.70713244876083 3.5 L 136.70713244876083 0 L 129.70713244876083 -3.5 L 129.70713244876083 -0.5 L 94.57622247438042 -0.5 Z"/><text text-anchor="middle" pointer-events="none" font-size="8px" fill="#000000" x="77.35356622438042" y="3" font-family="sans-serif">ORIGIN</text></g><g class="relationship" transform="translate(36.60374998148202 230.88314406446835) rotate(444.6492434832858)"><path class="outline" fill="#A5ABB6" stroke="none" d="M 25 0.5 L 35.52220275872892 0.5 L 35.52220275872892 -0.5 L 25 -0.5 Z M 94.70970275872892 0.5 L 105.23190551745785 0.5 L 105.23190551745785 3.5 L 112.23190551745785 0 L 105.23190551745785 -3.5 L 105.23190551745785 -0.5 L 94.70970275872892 -0.5 Z"/><text text-anchor="middle" pointer-events="none" font-size="8px" fill="#000000" x="65.11595275872892" y="3" font-family="sans-serif">DESTINATION</text></g><g class="relationship" transform="translate(79.87527577551855 -45.25043172332187) rotate(446.65356820293965)"><path class="outline" fill="#A5ABB6" stroke="none" d="M 25 0.5 L 40.62816001848146 0.5 L 40.62816001848146 -0.5 L 25 -0.5 Z M 75.07347251848145 0.5 L 90.70163253696292 0.5 L 90.70163253696292 3.5 L 97.70163253696292 0 L 90.70163253696292 -3.5 L 90.70163253696292 -0.5 L 75.07347251848145 -0.5 Z"/><text text-anchor="middle" pointer-events="none" font-size="8px" fill="#000000" x="57.85081626848146" y="3" font-family="sans-serif">ORIGIN</text></g><g class="relationship" transform="translate(79.87527577551855 -45.25043172332187) rotate(268.02047930816445)"><path class="outline" fill="#A5ABB6" stroke="none" d="M 25 0.5 L 42.31391233874798 0.5 L 42.31391233874798 -0.5 L 25 -0.5 Z M 101.50141233874798 0.5 L 118.81532467749597 0.5 L 118.81532467749597 3.5 L 125.81532467749597 0 L 118.81532467749597 -3.5 L 118.81532467749597 -0.5 L 101.50141233874798 -0.5 Z"/><text text-anchor="middle" pointer-events="none" font-size="8px" fill="#000000" x="71.90766233874798" y="3" transform="rotate(180 71.90766233874798 0)" font-family="sans-serif">DESTINATION</text></g><g class="relationship" transform="translate(47.573837979069424 -95.68812115740253) rotate(437.14482834615853)"><path class="outline" fill="#A5ABB6" stroke="none" d="M 25 0.5 L 67.96530520313317 0.5 L 67.96530520313317 -0.5 L 25 -0.5 Z M 102.41061770313317 0.5 L 145.37592290626634 0.5 L 145.37592290626634 3.5 L 152.37592290626634 0 L 145.37592290626634 -3.5 L 145.37592290626634 -0.5 L 102.41061770313317 -0.5 Z"/><text text-anchor="middle" pointer-events="none" font-size="8px" fill="#000000" x="85.18796145313317" y="3" font-family="sans-serif">ORIGIN</text></g><g class="relationship" transform="translate(47.573837979069424 -95.68812115740253) rotate(285.1171742193308)"><path class="outline" fill="#A5ABB6" stroke="none" d="M 25 0.5 L 26.773301926419613 0.5 L 26.773301926419613 -0.5 L 25 -0.5 Z M 70.1092394264196 0.5 L 71.88254135283923 0.5 L 71.88254135283923 3.5 L 78.88254135283923 0 L 71.88254135283923 -3.5 L 71.88254135283923 -0.5 L 70.1092394264196 -0.5 Z"/><text text-anchor="middle" pointer-events="none" font-size="8px" fill="#000000" x="48.44127067641961" y="3" font-family="sans-serif">DESTIN…</text></g><g class="relationship" transform="translate(19.941495327647825 -42.56999555368343) rotate(420.7506109240857)"><path class="outline" fill="#A5ABB6" stroke="none" d="M 25 0.5 L 47.93740293865693 0.5 L 47.93740293865693 -0.5 L 25 -0.5 Z M 82.38271543865693 0.5 L 105.32011837731386 0.5 L 105.32011837731386 3.5 L 112.32011837731386 0 L 105.32011837731386 -3.5 L 105.32011837731386 -0.5 L 82.38271543865693 -0.5 Z"/><text text-anchor="middle" pointer-events="none" font-size="8px" fill="#000000" x="65.16005918865693" y="3" font-family="sans-serif">ORIGIN</text></g><g class="relationship" transform="translate(19.941495327647825 -42.56999555368343) rotate(289.6327887082444)"><path class="outline" fill="#A5ABB6" stroke="none" d="M 25 0.5 L 48.343455040160876 0.5 L 48.343455040160876 -0.5 L 25 -0.5 Z M 107.53095504016088 0.5 L 130.87441008032175 0.5 L 130.87441008032175 3.5 L 137.87441008032175 0 L 130.87441008032175 -3.5 L 130.87441008032175 -0.5 L 107.53095504016088 -0.5 Z"/><text text-anchor="middle" pointer-events="none" font-size="8px" fill="#000000" x="77.93720504016088" y="3" font-family="sans-serif">DESTINATION</text></g><g class="relationship" transform="translate(-13.461767452011044 197.75848664241792) rotate(309.824949283294)"><path class="outline" fill="#A5ABB6" stroke="none" d="M 25 0.5 L 57.73813256485009 0.5 L 57.73813256485009 -0.5 L 25 -0.5 Z M 92.18344506485009 0.5 L 124.92157762970018 0.5 L 124.92157762970018 3.5 L 131.92157762970018 0 L 124.92157762970018 -3.5 L 124.92157762970018 -0.5 L 92.18344506485009 -0.5 Z"/><text text-anchor="middle" pointer-events="none" font-size="8px" fill="#000000" x="74.96078881485009" y="3" font-family="sans-serif">ORIGIN</text></g><g class="relationship" transform="translate(-13.461767452011044 197.75848664241792) rotate(490.19433366011845)"><path class="outline" fill="#A5ABB6" stroke="none" d="M 25 0.5 L 42.475017159933884 0.5 L 42.475017159933884 -0.5 L 25 -0.5 Z M 101.66251715993388 0.5 L 119.13753431986777 0.5 L 119.13753431986777 3.5 L 126.13753431986777 0 L 119.13753431986777 -3.5 L 119.13753431986777 -0.5 L 101.66251715993388 -0.5 Z"/><text text-anchor="middle" pointer-events="none" font-size="8px" fill="#000000" x="72.06876715993388" y="3" transform="rotate(180 72.06876715993388 0)" font-family="sans-serif">DESTINATION</text></g><g class="relationship" transform="translate(218.09535707883165 182.05609822243798) rotate(218.651285785303)"><path class="outline" fill="#A5ABB6" stroke="none" d="M 25 0.5 L 63.18517750444407 0.5 L 63.18517750444407 -0.5 L 25 -0.5 Z M 97.63049000444407 0.5 L 135.81566750888814 0.5 L 135.81566750888814 3.5 L 142.81566750888814 0 L 135.81566750888814 -3.5 L 135.81566750888814 -0.5 L 97.63049000444407 -0.5 Z"/><text text-anchor="middle" pointer-events="none" font-size="8px" fill="#000000" x="80.40783375444407" y="3" transform="rotate(180 80.40783375444407 0)" font-family="sans-serif">ORIGIN</text></g><g class="relationship" transform="translate(218.09535707883165 182.05609822243798) rotate(357.2152440431362)"><path class="outline" fill="#A5ABB6" stroke="none" d="M 25 0.5 L 37.72139945740837 0.5 L 37.72139945740837 -0.5 L 25 -0.5 Z M 96.90889945740837 0.5 L 109.63029891481673 0.5 L 109.63029891481673 3.5 L 116.63029891481673 0 L 109.63029891481673 -3.5 L 109.63029891481673 -0.5 L 96.90889945740837 -0.5 Z"/><text text-anchor="middle" pointer-events="none" font-size="8px" fill="#000000" x="67.31514945740837" y="3" font-family="sans-serif">DESTINATION</text></g><g class="relationship" transform="translate(-12.34529060844649 -92.95301595509318) rotate(419.71779278111364)"><path class="outline" fill="#A5ABB6" stroke="none" d="M 25 0.5 L 77.8208906868795 0.5 L 77.8208906868795 -0.5 L 25 -0.5 Z M 112.2662031868795 0.5 L 165.087093873759 0.5 L 165.087093873759 3.5 L 172.087093873759 0 L 165.087093873759 -3.5 L 165.087093873759 -0.5 L 112.2662031868795 -0.5 Z"/><text text-anchor="middle" pointer-events="none" font-size="8px" fill="#000000" x="95.0435469368795" y="3" font-family="sans-serif">ORIGIN</text></g><g class="relationship" transform="translate(-12.34529060844649 -92.95301595509318) rotate(310.18380497721296)"><path class="outline" fill="#A5ABB6" stroke="none" d="M 25 0.5 L 34.33141148128611 0.5 L 34.33141148128611 -0.5 L 25 -0.5 Z M 93.51891148128611 0.5 L 102.85032296257222 0.5 L 102.85032296257222 3.5 L 109.85032296257222 0 L 102.85032296257222 -3.5 L 102.85032296257222 -0.5 L 93.51891148128611 -0.5 Z"/><text text-anchor="middle" pointer-events="none" font-size="8px" fill="#000000" x="63.92516148128611" y="3" font-family="sans-serif">DESTINATION</text></g><g class="relationship" transform="translate(156.05282127826464 225.41642580527267) rotate(245.02535231480732)"><path class="outline" fill="#A5ABB6" stroke="none" d="M 25 0.5 L 61.00669700241319 0.5 L 61.00669700241319 -0.5 L 25 -0.5 Z M 95.45200950241319 0.5 L 131.45870650482638 0.5 L 131.45870650482638 3.5 L 138.45870650482638 0 L 131.45870650482638 -3.5 L 131.45870650482638 -0.5 L 95.45200950241319 -0.5 Z"/><text text-anchor="middle" pointer-events="none" font-size="8px" fill="#000000" x="78.22935325241319" y="3" transform="rotate(180 78.22935325241319 0)" font-family="sans-serif">ORIGIN</text></g><g class="relationship" transform="translate(156.05282127826464 225.41642580527267) rotate(425.1683927782878)"><path class="outline" fill="#A5ABB6" stroke="none" d="M 25 0.5 L 44.2906627997404 0.5 L 44.2906627997404 -0.5 L 25 -0.5 Z M 103.4781627997404 0.5 L 122.7688255994808 0.5 L 122.7688255994808 3.5 L 129.7688255994808 0 L 122.7688255994808 -3.5 L 122.7688255994808 -0.5 L 103.4781627997404 -0.5 Z"/><text text-anchor="middle" pointer-events="none" font-size="8px" fill="#000000" x="73.8844127997404" y="3" font-family="sans-serif">DESTINATION</text></g></g><g class="layer nodes"><g class="node" transform="translate(87.03774454397208,77.24197485103197)"><circle class="outline" cx="0" cy="0" r="25" fill="#F79767" stroke="#f36924" stroke-width="2px"/><text text-anchor="middle" pointer-events="none" font-family="sans-serif" dy="1.5625" font-size="25" fill="#FFFFFF"/><text text-anchor="middle" pointer-events="none" x="0" y="5" font-size="10px" fill="#FFFFFF" font-family="sans-serif"> LAX</text></g><g class="node" transform="translate(-195.65434313440602,90.73694470951997)"><circle class="outline" cx="0" cy="0" r="25" fill="#F79767" stroke="#f36924" stroke-width="2px"/><text text-anchor="middle" pointer-events="none" font-family="sans-serif" dy="1.5625" font-size="25" fill="#FFFFFF"/><text text-anchor="middle" pointer-events="none" x="0" y="5" font-size="10px" fill="#FFFFFF" font-family="sans-serif"> SMF</text></g><g class="node" transform="translate(359.55840461762676,175.17512796113525)"><circle class="outline" cx="0" cy="0" r="25" fill="#F79767" stroke="#f36924" stroke-width="2px"/><text text-anchor="middle" pointer-events="none" font-family="sans-serif" dy="1.5625" font-size="25" fill="#FFFFFF"/><text text-anchor="middle" pointer-events="none" x="0" y="5" font-size="10px" fill="#FFFFFF" font-family="sans-serif"> FAT</text></g><g class="node" transform="translate(364.45254893465784,-69.90139643646891)"><circle class="outline" cx="0" cy="0" r="25" fill="#F79767" stroke="#f36924" stroke-width="2px"/><text text-anchor="middle" pointer-events="none" font-family="sans-serif" dy="1.5625" font-size="25" fill="#FFFFFF"/><text text-anchor="middle" pointer-events="none" x="0" y="5" font-size="10px" fill="#FFFFFF" font-family="sans-serif"> LAS</text></g><g class="node" transform="translate(49.40098637437778,367.5170587147367)"><circle class="outline" cx="0" cy="0" r="25" fill="#F79767" stroke="#f36924" stroke-width="2px"/><text text-anchor="middle" pointer-events="none" font-family="sans-serif" dy="1.5625" font-size="25" fill="#FFFFFF"/><text text-anchor="middle" pointer-events="none" x="0" y="5" font-size="10px" fill="#FFFFFF" font-family="sans-serif"> TUS</text></g><g class="node" transform="translate(74.66577047216943,-195.97575544854365)"><circle class="outline" cx="0" cy="0" r="25" fill="#F79767" stroke="#f36924" stroke-width="2px"/><text text-anchor="middle" pointer-events="none" font-family="sans-serif" dy="1.5625" font-size="25" fill="#FFFFFF"/><text text-anchor="middle" pointer-events="none" x="0" y="5" font-size="10px" fill="#FFFFFF" font-family="sans-serif"> ABQ</text></g><g class="node" transform="translate(-111.00323399116603,313.206382187032)"><circle class="outline" cx="0" cy="0" r="25" fill="#F79767" stroke="#f36924" stroke-width="2px"/><text text-anchor="middle" pointer-events="none" font-family="sans-serif" dy="1.5625" font-size="25" fill="#FFFFFF"/><text text-anchor="middle" pointer-events="none" x="0" y="5" font-size="10px" fill="#FFFFFF" font-family="sans-serif"> EWR</text></g><g class="node" transform="translate(221.04842203171143,365.8762466087361)"><circle class="outline" cx="0" cy="0" r="25" fill="#F79767" stroke="#f36924" stroke-width="2px"/><text text-anchor="middle" pointer-events="none" font-family="sans-serif" dy="1.5625" font-size="25" fill="#FFFFFF"/><text text-anchor="middle" pointer-events="none" x="0" y="5" font-size="10px" fill="#FFFFFF" font-family="sans-serif"> IAH</text></g><g class="node" transform="translate(-76.76350504083607,142.97838689331383)"><circle class="outline" cx="0" cy="0" r="25" fill="#57C7E3" stroke="#23b3d7" stroke-width="2px"/><text text-anchor="middle" pointer-events="none" font-family="sans-serif" dy="1.5625" font-size="25" fill="#2A2C34"/><text text-anchor="middle" pointer-events="none" x="0" y="5" font-size="10px" fill="#2A2C34" font-family="sans-serif"> 11/4/2015</text></g><g class="node" transform="translate(262.8526373229677,142.20887157331472)"><circle class="outline" cx="0" cy="0" r="25" fill="#57C7E3" stroke="#23b3d7" stroke-width="2px"/><text text-anchor="middle" pointer-events="none" font-family="sans-serif" dy="1.5625" font-size="25" fill="#2A2C34"/><text text-anchor="middle" pointer-events="none" x="0" y="5" font-size="10px" fill="#2A2C34" font-family="sans-serif"> 11/4/2015</text></g><g class="node" transform="translate(230.87562563360999,1.7993490324087567)"><circle class="outline" cx="0" cy="0" r="25" fill="#57C7E3" stroke="#23b3d7" stroke-width="2px"/><text text-anchor="middle" pointer-events="none" font-family="sans-serif" dy="1.5625" font-size="25" fill="#2A2C34"/><text text-anchor="middle" pointer-events="none" x="0" y="5" font-size="10px" fill="#2A2C34" font-family="sans-serif"> 11/29/20…</text></g><g class="node" transform="translate(-37.45642270301294,97.73976402917754)"><circle class="outline" cx="0" cy="0" r="25" fill="#57C7E3" stroke="#23b3d7" stroke-width="2px"/><text text-anchor="middle" pointer-events="none" font-family="sans-serif" dy="1.5625" font-size="25" fill="#2A2C34"/><text text-anchor="middle" pointer-events="none" x="0" y="5" font-size="10px" fill="#2A2C34" font-family="sans-serif"> 11/2/2015</text></g><g class="node" transform="translate(96.17023967418986,237.38333871473353)"><circle class="outline" cx="0" cy="0" r="25" fill="#57C7E3" stroke="#23b3d7" stroke-width="2px"/><text text-anchor="middle" pointer-events="none" font-family="sans-serif" dy="1.5625" font-size="25" fill="#2A2C34"/><text text-anchor="middle" pointer-events="none" x="0" y="5" font-size="10px" fill="#2A2C34" font-family="sans-serif"> 11/1/2015</text></g><g class="node" transform="translate(108.24061962142082,-97.98316163673067)"><circle class="outline" cx="0" cy="0" r="25" fill="#57C7E3" stroke="#23b3d7" stroke-width="2px"/><text text-anchor="middle" pointer-events="none" font-family="sans-serif" dy="1.5625" font-size="25" fill="#2A2C34"/><text text-anchor="middle" pointer-events="none" x="0" y="5" font-size="10px" fill="#2A2C34" font-family="sans-serif"> 11/2/2015</text></g><g class="node" transform="translate(210.1130933539218,114.00981515024475)"><circle class="outline" cx="0" cy="0" r="25" fill="#57C7E3" stroke="#23b3d7" stroke-width="2px"/><text text-anchor="middle" pointer-events="none" font-family="sans-serif" dy="1.5625" font-size="25" fill="#2A2C34"/><text text-anchor="middle" pointer-events="none" x="0" y="5" font-size="10px" fill="#2A2C34" font-family="sans-serif"> 11/3/2015</text></g><g class="node" transform="translate(260.40167654765196,81.30888198456987)"><circle class="outline" cx="0" cy="0" r="25" fill="#57C7E3" stroke="#23b3d7" stroke-width="2px"/><text text-anchor="middle" pointer-events="none" font-family="sans-serif" dy="1.5625" font-size="25" fill="#2A2C34"/><text text-anchor="middle" pointer-events="none" x="0" y="5" font-size="10px" fill="#2A2C34" font-family="sans-serif"> 11/1/2015</text></g><g class="node" transform="translate(-94.193806794213,78.83877467363182)"><circle class="outline" cx="0" cy="0" r="25" fill="#57C7E3" stroke="#23b3d7" stroke-width="2px"/><text text-anchor="middle" pointer-events="none" font-family="sans-serif" dy="1.5625" font-size="25" fill="#2A2C34"/><text text-anchor="middle" pointer-events="none" x="0" y="5" font-size="10px" fill="#2A2C34" font-family="sans-serif"> 11/1/2015</text></g><g class="node" transform="translate(139.7963875996995,-47.0365215615629)"><circle class="outline" cx="0" cy="0" r="25" fill="#57C7E3" stroke="#23b3d7" stroke-width="2px"/><text text-anchor="middle" pointer-events="none" font-family="sans-serif" dy="1.5625" font-size="25" fill="#2A2C34"/><text text-anchor="middle" pointer-events="none" x="0" y="5" font-size="10px" fill="#2A2C34" font-family="sans-serif"> 11/3/2015</text></g><g class="node" transform="translate(-71.52156974807129,23.38769573805192)"><circle class="outline" cx="0" cy="0" r="25" fill="#57C7E3" stroke="#23b3d7" stroke-width="2px"/><text text-anchor="middle" pointer-events="none" font-family="sans-serif" dy="1.5625" font-size="25" fill="#2A2C34"/><text text-anchor="middle" pointer-events="none" x="0" y="5" font-size="10px" fill="#2A2C34" font-family="sans-serif"> 11/3/2015</text></g><g class="node" transform="translate(168.17314473435533,-99.71297892797719)"><circle class="outline" cx="0" cy="0" r="25" fill="#57C7E3" stroke="#23b3d7" stroke-width="2px"/><text text-anchor="middle" pointer-events="none" font-family="sans-serif" dy="1.5625" font-size="25" fill="#2A2C34"/><text text-anchor="middle" pointer-events="none" x="0" y="5" font-size="10px" fill="#2A2C34" font-family="sans-serif"> 11/1/2015</text></g><g class="node" transform="translate(36.60374998148202,230.88314406446835)"><circle class="outline" cx="0" cy="0" r="25" fill="#57C7E3" stroke="#23b3d7" stroke-width="2px"/><text text-anchor="middle" pointer-events="none" font-family="sans-serif" dy="1.5625" font-size="25" fill="#2A2C34"/><text text-anchor="middle" pointer-events="none" x="0" y="5" font-size="10px" fill="#2A2C34" font-family="sans-serif"> 11/2/2015</text></g><g class="node" transform="translate(79.87527577551855,-45.25043172332187)"><circle class="outline" cx="0" cy="0" r="25" fill="#57C7E3" stroke="#23b3d7" stroke-width="2px"/><text text-anchor="middle" pointer-events="none" font-family="sans-serif" dy="1.5625" font-size="25" fill="#2A2C34"/><text text-anchor="middle" pointer-events="none" x="0" y="5" font-size="10px" fill="#2A2C34" font-family="sans-serif"> 11/1/2015</text></g><g class="node" transform="translate(47.573837979069424,-95.68812115740253)"><circle class="outline" cx="0" cy="0" r="25" fill="#57C7E3" stroke="#23b3d7" stroke-width="2px"/><text text-anchor="middle" pointer-events="none" font-family="sans-serif" dy="1.5625" font-size="25" fill="#2A2C34"/><text text-anchor="middle" pointer-events="none" x="0" y="5" font-size="10px" fill="#2A2C34" font-family="sans-serif"> 11/2/2015</text></g><g class="node" transform="translate(19.941495327647825,-42.56999555368343)"><circle class="outline" cx="0" cy="0" r="25" fill="#57C7E3" stroke="#23b3d7" stroke-width="2px"/><text text-anchor="middle" pointer-events="none" font-family="sans-serif" dy="1.5625" font-size="25" fill="#2A2C34"/><text text-anchor="middle" pointer-events="none" x="0" y="5" font-size="10px" fill="#2A2C34" font-family="sans-serif"> 11/4/2015</text></g><g class="node" transform="translate(-13.461767452011044,197.75848664241792)"><circle class="outline" cx="0" cy="0" r="25" fill="#57C7E3" stroke="#23b3d7" stroke-width="2px"/><text text-anchor="middle" pointer-events="none" font-family="sans-serif" dy="1.5625" font-size="25" fill="#2A2C34"/><text text-anchor="middle" pointer-events="none" x="0" y="5" font-size="10px" fill="#2A2C34" font-family="sans-serif"> 11/30/20…</text></g><g class="node" transform="translate(218.09535707883165,182.05609822243798)"><circle class="outline" cx="0" cy="0" r="25" fill="#57C7E3" stroke="#23b3d7" stroke-width="2px"/><text text-anchor="middle" pointer-events="none" font-family="sans-serif" dy="1.5625" font-size="25" fill="#2A2C34"/><text text-anchor="middle" pointer-events="none" x="0" y="5" font-size="10px" fill="#2A2C34" font-family="sans-serif"> 11/2/2015</text></g><g class="node" transform="translate(-12.34529060844649,-92.95301595509318)"><circle class="outline" cx="0" cy="0" r="25" fill="#57C7E3" stroke="#23b3d7" stroke-width="2px"/><text text-anchor="middle" pointer-events="none" font-family="sans-serif" dy="1.5625" font-size="25" fill="#2A2C34"/><text text-anchor="middle" pointer-events="none" x="0" y="5" font-size="10px" fill="#2A2C34" font-family="sans-serif"> 11/3/2015</text></g><g class="node" transform="translate(156.05282127826464,225.41642580527267)"><circle class="outline" cx="0" cy="0" r="25" fill="#57C7E3" stroke="#23b3d7" stroke-width="2px"/><text text-anchor="middle" pointer-events="none" font-family="sans-serif" dy="1.5625" font-size="25" fill="#2A2C34"/><text text-anchor="middle" pointer-events="none" x="0" y="5" font-size="10px" fill="#2A2C34" font-family="sans-serif"> 11/30/20…</text></g></g></svg>