<svg xmlns="http://www.w3.org/2000/svg" width="269.7967224121094" height="274.1361083984375" viewBox="-30.86631202697754 -34.67292022705078 269.7967224121094 274.1361083984375"><title>Neo4j Graph Visualization</title><desc>Created using Neo4j (http://www.neo4j.com/)</desc><g class="layer relationships"><g class="relationship" transform="translate(146.38784868311154 202.756847814277) rotate(231.2938959130356)"><path class="outline" fill="#A5ABB6" stroke="none" d="M 25 0.5 L 44.457137283200325 0.5 L 44.457137283200325 -0.5 L 25 -0.5 Z M 78.90244978320032 0.5 L 98.35958706640065 0.5 L 98.35958706640065 3.5 L 105.35958706640065 0 L 98.35958706640065 -3.5 L 98.35958706640065 -0.5 L 78.90244978320032 -0.5 Z"/><text text-anchor="middle" pointer-events="none" font-size="8px" fill="#000000" x="61.679793533200325" y="3" transform="rotate(180 61.679793533200325 0)" font-family="sans-serif">ORIGIN</text></g><g class="relationship" transform="translate(146.38784868311154 202.756847814277) rotate(257.0752590995772)"><path class="outline" fill="#A5ABB6" stroke="none" d="M 25 0.5 L 26.727073598652765 0.5 L 26.727073598652765 -0.5 L 25 -0.5 Z M 64.28566734865277 0.5 L 66.01274094730553 0.5 L 66.01274094730553 3.5 L 73.01274094730553 0 L 66.01274094730553 -3.5 L 66.01274094730553 -0.5 L 64.28566734865277 -0.5 Z"/><text text-anchor="middle" pointer-events="none" font-size="8px" fill="#000000" x="45.506370473652765" y="3" transform="rotate(180 45.506370473652765 0)" font-family="sans-serif">DESTI…</text></g><g class="relationship" transform="translate(209.93040735768665 109.60688717499833) rotate(183.38417840532236)"><path class="outline" fill="#A5ABB6" stroke="none" d="M 25 0.5 L 51.9339304077055 0.5 L 51.9339304077055 -0.5 L 25 -0.5 Z M 86.3792429077055 0.5 L 113.313173315411 0.5 L 113.313173315411 3.5 L 120.313173315411 0 L 113.313173315411 -3.5 L 113.313173315411 -0.5 L 86.3792429077055 -0.5 Z"/><text text-anchor="middle" pointer-events="none" font-size="8px" fill="#000000" x="69.1565866577055" y="3" transform="rotate(180 69.1565866577055 0)" font-family="sans-serif">ORIGIN</text></g><g class="relationship" transform="translate(209.93040735768665 109.60688717499833) rotate(181.59486873100718)"><path class="outline" fill="#A5ABB6" stroke="none" d="M 25 0.5 L 26.692503466201323 0.5 L 26.692503466201323 -0.5 L 25 -0.5 Z M 51.80578471620132 0.5 L 53.498288182402646 0.5 L 53.498288182402646 3.5 L 60.498288182402646 0 L 53.498288182402646 -3.5 L 53.498288182402646 -0.5 L 51.80578471620132 -0.5 Z"/><text text-anchor="middle" pointer-events="none" font-size="8px" fill="#000000" x="39.24914409120132" y="3" transform="rotate(180 39.24914409120132 0)" font-family="sans-serif">DE…</text></g><g class="relationship" transform="translate(160.21118427249382 14.048490524005395) rotate(497.62538451317437)"><path class="outline" fill="#A5ABB6" stroke="none" d="M 25 0.5 L 43.80528306082178 0.5 L 43.80528306082178 -0.5 L 25 -0.5 Z M 78.25059556082178 0.5 L 97.05587862164356 0.5 L 97.05587862164356 3.5 L 104.05587862164356 0 L 97.05587862164356 -3.5 L 97.05587862164356 -0.5 L 78.25059556082178 -0.5 Z"/><text text-anchor="middle" pointer-events="none" font-size="8px" fill="#000000" x="61.02793931082178" y="3" transform="rotate(180 61.02793931082178 0)" font-family="sans-serif">ORIGIN</text></g><g class="relationship" transform="translate(160.21118427249382 14.048490524005395) rotate(470.9881842104136)"><path class="outline" fill="#A5ABB6" stroke="none" d="M 25 0.5 L 27.62075568854192 0.5 L 27.62075568854192 -0.5 L 25 -0.5 Z M 65.17934943854192 0.5 L 67.80010512708384 0.5 L 67.80010512708384 3.5 L 74.80010512708384 0 L 67.80010512708384 -3.5 L 67.80010512708384 -0.5 L 65.17934943854192 -0.5 Z"/><text text-anchor="middle" pointer-events="none" font-size="8px" fill="#000000" x="46.40005256354192" y="3" transform="rotate(180 46.40005256354192 0)" font-family="sans-serif">DESTI…</text></g><g class="relationship" transform="translate(85.00408358231354 -5.672919369162106) rotate(460.68544134686607)"><path class="outline" fill="#A5ABB6" stroke="none" d="M 25 0.5 L 33.56970927619162 0.5 L 33.56970927619162 -0.5 L 25 -0.5 Z M 68.01502177619162 0.5 L 76.58473105238323 0.5 L 76.58473105238323 3.5 L 83.58473105238323 0 L 76.58473105238323 -3.5 L 76.58473105238323 -0.5 L 68.01502177619162 -0.5 Z"/><text text-anchor="middle" pointer-events="none" font-size="8px" fill="#000000" x="50.79236552619162" y="3" transform="rotate(180 50.79236552619162 0)" font-family="sans-serif">ORIGIN</text></g><g class="relationship" transform="translate(85.00408358231354 -5.672919369162106) rotate(430.7343333448704)"><path class="outline" fill="#A5ABB6" stroke="none" d="M 25 0.5 L 26.70516284665667 0.5 L 26.70516284665667 -0.5 L 25 -0.5 Z M 85.89266284665666 0.5 L 87.59782569331334 0.5 L 87.59782569331334 3.5 L 94.59782569331334 0 L 87.59782569331334 -3.5 L 87.59782569331334 -0.5 L 85.89266284665666 -0.5 Z"/><text text-anchor="middle" pointer-events="none" font-size="8px" fill="#000000" x="56.29891284665667" y="3" font-family="sans-serif">DESTINATION</text></g><g class="relationship" transform="translate(6.6795622930104575 32.9840598959158) rotate(409.4633823050344)"><path class="outline" fill="#A5ABB6" stroke="none" d="M 25 0.5 L 27.155589361123766 0.5 L 27.155589361123766 -0.5 L 25 -0.5 Z M 55.378245611123766 0.5 L 57.53383497224753 0.5 L 57.53383497224753 3.5 L 64.53383497224753 0 L 57.53383497224753 -3.5 L 57.53383497224753 -0.5 L 55.378245611123766 -0.5 Z"/><text text-anchor="middle" pointer-events="none" font-size="8px" fill="#000000" x="41.266917486123766" y="3" font-family="sans-serif">ORI…</text></g><g class="relationship" transform="translate(6.6795622930104575 32.9840598959158) rotate(392.2242461947232)"><path class="outline" fill="#A5ABB6" stroke="none" d="M 25 0.5 L 36.522201795285426 0.5 L 36.522201795285426 -0.5 L 25 -0.5 Z M 95.70970179528543 0.5 L 107.23190359057085 0.5 L 107.23190359057085 3.5 L 114.23190359057085 0 L 107.23190359057085 -3.5 L 107.23190359057085 -0.5 L 95.70970179528543 -0.5 Z"/><text text-anchor="middle" pointer-events="none" font-size="8px" fill="#000000" x="66.11595179528543" y="3" font-family="sans-serif">DESTINATION</text></g><g class="relationship" transform="translate(-1.866312108901817 162.7528476675542) rotate(317.23477225724116)"><path class="outline" fill="#A5ABB6" stroke="none" d="M 25 0.5 L 27.841010265706387 0.5 L 27.841010265706387 -0.5 L 25 -0.5 Z M 56.06366651570639 0.5 L 58.904676781412775 0.5 L 58.904676781412775 3.5 L 65.90467678141277 0 L 58.904676781412775 -3.5 L 58.904676781412775 -0.5 L 56.06366651570639 -0.5 Z"/><text text-anchor="middle" pointer-events="none" font-size="8px" fill="#000000" x="41.95233839070639" y="3" font-family="sans-serif">ORI…</text></g><g class="relationship" transform="translate(-1.866312108901817 162.7528476675542) rotate(336.27343109107846)"><path class="outline" fill="#A5ABB6" stroke="none" d="M 25 0.5 L 35.90398327740428 0.5 L 35.90398327740428 -0.5 L 25 -0.5 Z M 95.09148327740428 0.5 L 105.99546655480856 0.5 L 105.99546655480856 3.5 L 112.99546655480856 0 L 105.99546655480856 -3.5 L 105.99546655480856 -0.5 L 95.09148327740428 -0.5 Z"/><text text-anchor="middle" pointer-events="none" font-size="8px" fill="#000000" x="65.49773327740428" y="3" font-family="sans-serif">DESTINATION</text></g><g class="relationship" transform="translate(69.07879050082471 210.46318917784131) rotate(267.7978487427125)"><path class="outline" fill="#A5ABB6" stroke="none" d="M 25 0.5 L 34.03490512407168 0.5 L 34.03490512407168 -0.5 L 25 -0.5 Z M 68.48021762407168 0.5 L 77.51512274814336 0.5 L 77.51512274814336 3.5 L 84.51512274814336 0 L 77.51512274814336 -3.5 L 77.51512274814336 -0.5 L 68.48021762407168 -0.5 Z"/><text text-anchor="middle" pointer-events="none" font-size="8px" fill="#000000" x="51.25756137407168" y="3" transform="rotate(180 51.25756137407168 0)" font-family="sans-serif">ORIGIN</text></g><g class="relationship" transform="translate(69.07879050082471 210.46318917784131) rotate(298.2137257907221)"><path class="outline" fill="#A5ABB6" stroke="none" d="M 25 0.5 L 25.48378391487924 0.5 L 25.48378391487924 -0.5 L 25 -0.5 Z M 84.67128391487924 0.5 L 85.15506782975848 0.5 L 85.15506782975848 3.5 L 92.15506782975848 0 L 85.15506782975848 -3.5 L 85.15506782975848 -0.5 L 84.67128391487924 -0.5 Z"/><text text-anchor="middle" pointer-events="none" font-size="8px" fill="#000000" x="55.07753391487924" y="3" font-family="sans-serif">DESTINATION</text></g></g><g class="layer nodes"><g class="node" transform="translate(64.87063599831502,101.02894615389604)"><circle class="outline" cx="0" cy="0" r="25" fill="#F79767" stroke="#f36924" stroke-width="2px"/><text text-anchor="middle" pointer-events="none" font-family="sans-serif" dy="1.5625" font-size="25" fill="#FFFFFF"/><text text-anchor="middle" pointer-events="none" x="0" y="5" font-size="10px" fill="#FFFFFF" font-family="sans-serif"> LAX</text></g><g class="node" transform="translate(124.46524021821855,107.22728890134877)"><circle class="outline" cx="0" cy="0" r="25" fill="#F79767" stroke="#f36924" stroke-width="2px"/><text text-anchor="middle" pointer-events="none" font-family="sans-serif" dy="1.5625" font-size="25" fill="#FFFFFF"/><text text-anchor="middle" pointer-events="none" x="0" y="5" font-size="10px" fill="#FFFFFF" font-family="sans-serif"> ABQ</text></g><g class="node" transform="translate(146.38784868311154,202.756847814277)"><circle class="outline" cx="0" cy="0" r="25" fill="#57C7E3" stroke="#23b3d7" stroke-width="2px"/><text text-anchor="middle" pointer-events="none" font-family="sans-serif" dy="1.5625" font-size="25" fill="#2A2C34"/><text text-anchor="middle" pointer-events="none" x="0" y="5" font-size="10px" fill="#2A2C34" font-family="sans-serif"> 11/2/2015</text></g><g class="node" transform="translate(209.93040735768665,109.60688717499833)"><circle class="outline" cx="0" cy="0" r="25" fill="#57C7E3" stroke="#23b3d7" stroke-width="2px"/><text text-anchor="middle" pointer-events="none" font-family="sans-serif" dy="1.5625" font-size="25" fill="#2A2C34"/><text text-anchor="middle" pointer-events="none" x="0" y="5" font-size="10px" fill="#2A2C34" font-family="sans-serif"> 11/1/2015</text></g><g class="node" transform="translate(160.21118427249382,14.048490524005395)"><circle class="outline" cx="0" cy="0" r="25" fill="#57C7E3" stroke="#23b3d7" stroke-width="2px"/><text text-anchor="middle" pointer-events="none" font-family="sans-serif" dy="1.5625" font-size="25" fill="#2A2C34"/><text text-anchor="middle" pointer-events="none" x="0" y="5" font-size="10px" fill="#2A2C34" font-family="sans-serif"> 11/4/2015</text></g><g class="node" transform="translate(85.00408358231354,-5.672919369162106)"><circle class="outline" cx="0" cy="0" r="25" fill="#57C7E3" stroke="#23b3d7" stroke-width="2px"/><text text-anchor="middle" pointer-events="none" font-family="sans-serif" dy="1.5625" font-size="25" fill="#2A2C34"/><text text-anchor="middle" pointer-events="none" x="0" y="5" font-size="10px" fill="#2A2C34" font-family="sans-serif"> 11/1/2015</text></g><g class="node" transform="translate(6.6795622930104575,32.9840598959158)"><circle class="outline" cx="0" cy="0" r="25" fill="#57C7E3" stroke="#23b3d7" stroke-width="2px"/><text text-anchor="middle" pointer-events="none" font-family="sans-serif" dy="1.5625" font-size="25" fill="#2A2C34"/><text text-anchor="middle" pointer-events="none" x="0" y="5" font-size="10px" fill="#2A2C34" font-family="sans-serif"> 11/3/2015</text></g><g class="node" transform="translate(-1.866312108901817,162.7528476675542)"><circle class="outline" cx="0" cy="0" r="25" fill="#57C7E3" stroke="#23b3d7" stroke-width="2px"/><text text-anchor="middle" pointer-events="none" font-family="sans-serif" dy="1.5625" font-size="25" fill="#2A2C34"/><text text-anchor="middle" pointer-events="none" x="0" y="5" font-size="10px" fill="#2A2C34" font-family="sans-serif"> 11/3/2015</text></g><g class="node" transform="translate(69.07879050082471,210.46318917784131)"><circle class="outline" cx="0" cy="0" r="25" fill="#57C7E3" stroke="#23b3d7" stroke-width="2px"/><text text-anchor="middle" pointer-events="none" font-family="sans-serif" dy="1.5625" font-size="25" fill="#2A2C34"/><text text-anchor="middle" pointer-events="none" x="0" y="5" font-size="10px" fill="#2A2C34" font-family="sans-serif"> 11/2/2015</text></g></g></svg>